<?xml version="1.0" standalone="no"?>
<!DOCTYPE svg PUBLIC "-//W3C//DTD SVG 20010904//EN"
 "http://www.w3.org/TR/2001/REC-SVG-20010904/DTD/svg10.dtd">
<svg version="1.0" xmlns="http://www.w3.org/2000/svg"
 width="300.000000pt" height="227.000000pt" viewBox="0 0 300.000000 227.000000"
 preserveAspectRatio="xMidYMid meet">
<metadata>
Created by potrace 1.10, written by Peter Selinger 2001-2011
</metadata>
<g transform="translate(0.000000,227.000000) scale(0.100000,-0.100000)"
fill="#000000" stroke="none">
<path d="M283 1952 l-73 -3 0 -114 0 -115 -25 0 c-16 0 -36 -12 -55 -32 -27
-30 -29 -40 -30 -104 0 -67 2 -72 34 -103 27 -26 41 -33 64 -29 19 3 29 0 29
-9 0 -6 -4 -10 -9 -7 -5 3 -7 -47 -6 -111 l3 -117 188 -3 188 -2 -2 160 -1
159 198 -1 c109 -1 200 -4 202 -6 2 -2 3 -37 3 -79 0 -72 1 -76 22 -77 12 0
58 0 103 0 79 0 82 -1 114 -34 29 -30 32 -38 29 -84 -2 -28 -2 -51 1 -51 3 0
5 -13 5 -30 0 -27 -3 -30 -32 -30 -32 0 -33 -1 -33 -45 0 -43 -5 -50 -36 -46
-28 3 -46 -38 -46 -104 1 -75 18 -105 59 -105 23 0 24 -3 21 -42 l-3 -43 40
-5 c52 -6 115 0 115 11 0 5 -29 9 -65 9 -73 0 -87 12 -67 56 10 21 18 24 67
24 l55 0 -2 38 c-1 36 -1 36 -5 5 -4 -31 -7 -33 -43 -33 -36 0 -39 2 -43 33
l-4 32 -1 -31 c-2 -28 -6 -32 -34 -36 -66 -7 -68 -5 -68 86 l0 82 37 2 c42 3
56 17 41 42 -22 35 -3 50 62 50 47 0 60 3 60 15 0 10 -10 15 -29 15 l-30 0 0
72 c0 93 12 108 85 108 l53 0 -1 -90 c-1 -81 -3 -90 -19 -90 -11 0 -19 -7 -19
-15 0 -9 9 -15 25 -15 23 0 25 -4 25 -45 0 -25 -4 -45 -10 -45 -5 0 -10 19
-10 43 0 31 -3 38 -10 27 -12 -19 -12 -308 1 -315 5 -4 9 12 9 34 0 23 5 41
10 41 6 0 10 -20 10 -45 0 -41 -2 -45 -25 -45 -14 0 -25 -4 -25 -10 0 -5 8
-10 18 -10 16 0 19 -9 19 -59 l1 -60 -69 1 c-63 2 -69 3 -69 22 0 12 4 28 10
36 9 14 -4 40 -20 40 -3 0 -5 -55 -3 -122 l3 -123 -108 2 -107 1 2 51 1 51
-113 0 -113 0 4 -181 c2 -100 5 -183 7 -185 2 -2 99 -4 215 -4 203 -1 212 -2
212 -21 0 -12 7 -19 19 -19 15 0 18 -7 17 -37 l-1 -38 60 -2 c44 -1 54 1 38 8
-31 11 -29 14 9 13 18 0 34 -6 36 -12 2 -7 8 -12 13 -12 4 0 6 7 3 15 -4 8 -1
15 5 15 6 0 11 -7 11 -15 0 -8 5 -15 11 -15 5 0 8 4 4 9 -3 5 -1 12 5 16 5 3
10 1 10 -6 0 -9 3 -9 14 0 9 7 17 8 20 2 3 -5 0 -12 -6 -14 -8 -3 -6 -6 5 -6
9 -1 17 5 17 12 0 8 4 7 10 -3 6 -10 10 -11 10 -2 0 6 9 12 21 12 13 0 18 -4
13 -12 -5 -8 0 -7 11 2 14 11 19 12 22 2 7 -18 23 -4 23 19 0 11 -4 17 -10 14
-12 -8 -13 15 -1 34 5 8 16 11 31 6 18 -6 21 -3 18 15 -3 24 -31 22 381 29
l43 1 -4 35 c-2 19 1 37 7 39 6 3 6 5 0 5 -6 1 -9 53 -7 141 l3 140 -119 0
-118 0 1 -52 0 -53 -97 -2 -97 -1 1 134 0 134 34 0 35 0 -4 45 c-3 43 -2 45
23 45 41 0 50 17 50 99 -1 82 -13 111 -49 111 -22 0 -25 9 -21 63 1 25 -1 27
-34 27 -36 0 -36 0 -36 44 0 26 5 47 13 50 10 5 10 7 0 12 -23 10 -14 59 15
87 26 25 33 27 135 28 l107 2 0 84 0 84 204 -1 203 -1 -1 -160 -2 -159 182 0
181 0 6 38 c3 20 4 65 2 100 -1 34 1 65 6 68 5 3 9 -1 9 -9 0 -10 7 -13 20
-10 12 3 20 14 20 27 0 12 14 35 30 51 28 27 30 33 30 106 0 56 -4 80 -15 89
-22 18 -31 5 -11 -15 16 -17 13 -40 -5 -30 -5 4 -9 -1 -9 -10 0 -9 5 -13 10
-10 6 4 10 -7 10 -25 0 -25 -4 -31 -17 -28 -14 2 -18 13 -18 44 0 43 -21 74
-50 74 -12 0 -15 5 -11 16 3 9 6 19 6 22 0 4 16 -11 35 -33 19 -22 34 -35 35
-28 0 7 -12 24 -27 38 -15 14 -24 25 -19 25 5 0 18 -7 28 -17 10 -9 18 -11 18
-5 0 6 -4 14 -10 17 -5 3 -10 18 -10 33 0 21 -2 24 -10 12 -5 -8 -10 -10 -10
-5 0 6 -7 1 -15 -9 -13 -18 -15 -7 -15 100 l0 120 -120 2 -120 1 0 -54 0 -54
-385 2 -385 2 0 50 0 50 -115 -3 c-63 -2 -115 -7 -115 -13 0 -5 46 -9 104 -9
l104 0 4 -177 c5 -255 0 -356 -17 -349 -16 6 -44 -24 -38 -41 5 -15 -32 -17
-239 -14 -113 2 -127 0 -136 -16 -10 -17 -13 -16 -41 11 -21 20 -28 33 -21 40
7 7 17 3 31 -11 20 -19 23 -20 40 -5 10 9 25 17 34 18 49 7 60 37 25 67 -21
18 -47 21 -75 11 -13 -5 -14 -9 -4 -15 20 -12 3 -22 -18 -10 -10 6 -13 11 -8
11 6 0 4 4 -3 9 -10 6 -9 12 5 29 14 17 30 22 76 23 46 2 57 5 52 16 -3 8 -5
21 -5 29 0 8 -6 14 -14 14 -9 0 -12 -8 -8 -25 4 -24 2 -25 -40 -25 -24 0 -49
-5 -56 -12 -9 -9 -12 -5 -12 18 l0 29 -70 0 c-56 0 -70 -3 -70 -15 0 -13 1
-13 10 0 8 13 11 11 16 -7 5 -19 13 -23 43 -21 l36 1 -32 4 c-45 6 -42 18 4
18 l38 0 -2 -69 c-1 -38 -4 -70 -7 -73 -4 -4 -146 -7 -188 -4 -10 0 -18 8 -18
17 0 12 7 15 25 12 23 -5 25 -2 25 33 0 22 -5 39 -11 39 -5 0 -7 -4 -4 -10 3
-5 1 -10 -6 -10 -10 0 -10 -3 -1 -12 17 -17 15 -30 -5 -26 -11 2 -17 15 -19
41 l-4 37 40 0 c22 0 40 4 40 9 0 5 2 15 5 23 4 10 -31 14 -181 16 -154 3
-185 1 -178 -10 6 -10 5 -11 -7 -2 -9 7 -60 11 -142 10 -71 0 -131 2 -134 7
-17 28 -23 -11 -23 -161 l0 -168 -95 1 -95 0 0 122 c0 67 -3 128 -6 137 -5 13
2 16 45 16 28 0 51 5 51 10 0 6 -30 10 -69 10 -43 0 -72 5 -79 13 -12 14 -14
88 -3 106 13 20 65 9 76 -16 5 -13 15 -23 21 -23 6 0 11 -7 11 -16 0 -10 -7
-14 -19 -11 -12 3 -16 1 -12 -6 4 -7 1 -6 -7 1 -8 7 -14 18 -14 25 0 6 -8 13
-17 15 -12 2 -18 -3 -18 -16 0 -11 -3 -29 -7 -39 -6 -15 -5 -16 9 -5 11 9 18
10 23 2 3 -5 1 -10 -6 -10 -7 0 -10 -3 -7 -6 4 -3 16 0 28 6 18 10 21 9 15 -2
-3 -7 0 -5 8 5 8 9 19 17 26 17 6 0 11 11 11 25 0 14 -6 25 -13 25 -7 0 -18 9
-25 20 -11 19 -10 20 28 20 22 0 40 5 40 10 0 6 -23 10 -50 10 l-51 0 6 38 c4
27 3 32 -4 17 -8 -17 -10 -17 -10 -3 -1 9 3 19 9 23 6 4 5 15 -2 30 -7 17 -7
32 0 54 7 19 7 31 1 31 -5 0 -9 7 -9 15 0 8 4 15 9 15 5 0 7 9 4 19 -4 17 3
19 89 23 51 2 96 3 101 1 4 -3 7 -78 7 -169 0 -103 4 -164 10 -164 12 0 12 0
10 127 l-2 102 191 0 c139 0 191 -3 191 -11 0 -9 3 -9 12 0 8 8 45 12 100 12
62 0 88 -4 88 -12 0 -9 3 -9 12 0 7 7 44 12 98 12 l86 0 -3 -94 c-1 -51 -3
-97 -4 -102 -1 -5 -1 -25 0 -44 1 -24 4 -31 10 -21 7 11 9 11 14 0 4 -10 6 -9
6 4 1 9 -5 17 -11 17 -10 0 -10 2 0 9 10 6 13 45 13 165 l0 156 95 0 c56 0 94
4 94 10 0 9 -184 15 -207 8 -5 -2 -8 -22 -8 -45 l0 -43 -388 0 -389 0 4 50 c3
44 1 50 -17 51 -11 0 -33 1 -50 2 -16 1 -63 1 -102 -1z m2444 -123 c1 -52 3
-101 4 -109 8 -59 7 -60 -101 -60 l-100 0 0 135 0 135 98 -4 97 -3 2 -94z
m-627 -8 c12 -1 14 -17 12 -97 l-3 -95 -37 2 c-20 1 -45 -2 -55 -6 -10 -4 -22
-4 -27 1 -5 5 -42 7 -82 3 -40 -3 -81 -1 -92 4 -10 5 -31 6 -47 3 l-29 -5 0
97 0 97 173 -1 c94 -1 179 -2 187 -3z m410 -96 l0 -93 -154 2 c-92 0 -152 -3
-148 -8 3 -5 -2 -6 -12 -3 -10 4 -31 7 -47 7 l-29 0 0 81 c0 56 4 85 14 95 18
18 176 20 176 3 0 -8 4 -8 13 -1 15 13 66 18 135 14 l52 -4 0 -93z m-2300 -37
c0 -10 -7 -18 -16 -18 -18 0 -44 -23 -44 -39 0 -13 -10 -14 -29 -2 -16 11 -6
32 12 25 7 -2 22 4 32 16 20 22 8 28 -15 8 -8 -7 -7 -4 2 7 22 26 58 28 58 3z
m2479 -54 c3 -3 -4 -14 -16 -24 -26 -20 -32 -70 -9 -70 8 0 16 -3 19 -7 2 -5
2 -2 1 5 -2 8 9 12 32 12 21 0 33 -4 29 -10 -3 -5 2 -10 11 -10 14 0 15 3 6
12 -7 7 -12 22 -12 35 0 14 -6 23 -15 23 -9 0 -15 -9 -15 -21 0 -14 -5 -19
-15 -16 -8 4 -17 2 -20 -3 -8 -14 -25 -12 -25 2 0 6 11 26 26 45 41 53 87 42
100 -24 10 -50 -10 -74 -59 -73 -23 1 -77 -1 -119 -6 l-78 -7 0 28 c0 21 -4
26 -16 21 -9 -3 -29 -6 -45 -6 -16 0 -29 -4 -29 -10 0 -5 16 -10 35 -10 32 0
35 -2 35 -29 0 -17 5 -33 10 -36 6 -3 10 2 10 13 0 18 8 19 101 20 75 1 99 -2
96 -11 -2 -6 0 -22 4 -34 5 -13 5 -23 0 -23 -5 0 -8 -42 -7 -94 0 -52 -1 -97
-4 -99 -8 -9 -173 -10 -192 -2 -10 4 -18 3 -18 -1 0 -5 -25 -7 -55 -6 l-55 4
0 150 c0 129 2 149 15 144 9 -3 15 0 15 8 0 16 28 14 -362 15 l-328 1 0 38 0
37 330 -3 c262 -2 330 0 330 10 0 9 3 10 8 2 4 -6 33 -13 65 -16 55 -5 57 -4
57 20 l0 25 77 -7 c42 -3 79 -9 82 -12z m-2541 -49 c0 -18 -6 -25 -19 -25 -19
0 -27 29 -12 43 14 15 31 6 31 -18z m52 -85 c12 0 17 -6 13 -18 -5 -19 -39
-27 -48 -11 -4 5 -1 9 6 9 7 0 5 8 -6 20 -12 13 -21 17 -25 10 -5 -7 -11 -6
-20 5 -10 12 -10 15 4 15 9 0 16 5 16 11 0 7 9 0 21 -15 11 -14 29 -26 39 -26z
m321 20 c6 0 7 5 4 10 -3 6 -1 10 4 10 6 0 11 -4 11 -10 0 -5 5 -9 12 -7 7 1
13 -11 14 -28 7 -105 7 -135 3 -139 -3 -3 -4 -32 -2 -65 2 -52 0 -61 -17 -66
-11 -4 -29 -3 -40 0 -11 3 -20 2 -20 -3 0 -6 -9 -8 -20 -5 -20 5 -20 12 -18
157 3 150 3 151 26 148 13 -2 22 2 23 10 0 10 2 10 6 1 2 -7 9 -13 14 -13z
m556 -4 c3 -3 -10 -6 -30 -6 -20 0 -37 4 -37 9 0 10 57 8 67 -3z m773 2 c0 20
21 14 27 -8 4 -15 14 -20 39 -20 l33 0 0 -59 c-1 -53 -3 -58 -20 -54 -21 6
-26 23 -6 23 8 0 7 4 -3 10 -13 9 -13 11 0 20 12 8 13 11 1 19 -11 7 -11 9 0
14 10 4 9 6 -3 6 -13 1 -18 -9 -20 -46 l-3 -48 -64 -2 c-42 -1 -69 3 -78 12
-11 12 -20 105 -9 105 23 0 36 -16 36 -44 -1 -29 -1 -30 -15 -12 -8 11 -15 15
-15 9 0 -7 7 -19 16 -28 21 -21 32 -6 29 41 -1 27 2 34 17 34 12 0 18 7 18 23
0 18 2 19 10 7 6 -10 10 -11 10 -2z m953 -21 c-32 -35 -39 -54 -10 -28 15 13
29 33 33 44 5 15 8 17 15 6 9 -15 -45 -79 -68 -79 -7 0 -13 -6 -14 -12 -1 -18
-17 23 -18 45 -1 10 6 17 17 17 10 0 27 8 38 19 26 25 32 16 7 -12z m-983 13
c0 -5 -18 -10 -40 -10 -22 0 -40 5 -40 10 0 6 18 10 40 10 22 0 40 -4 40 -10z
m130 0 c0 -5 -13 -10 -30 -10 -16 0 -30 5 -30 10 0 6 14 10 30 10 17 0 30 -4
30 -10z m-590 -105 c-6 -7 -18 -12 -26 -11 -22 3 -35 28 -23 43 9 10 16 9 35
-4 18 -11 22 -19 14 -28z m-52 -26 c3 -9 -2 -8 -17 5 -23 20 -29 10 -8 -14 6
-8 0 -4 -16 9 -20 18 -24 27 -15 32 15 9 50 -11 56 -32z m387 -8 c-3 -6 -11
-11 -17 -11 -6 0 -6 6 2 15 14 17 26 13 15 -4z m34 -28 c-24 -25 -49 -31 -49
-11 0 6 10 22 22 35 16 18 24 20 35 11 11 -9 10 -15 -8 -35z m-1502 15 c-3 -8
-6 -5 -6 6 -1 11 2 17 5 13 3 -3 4 -12 1 -19z m1293 -77 c0 -22 4 -51 10 -65
6 -17 6 -26 0 -26 -6 0 -10 -11 -10 -24 0 -14 -4 -28 -10 -31 -20 -12 -9 -25
20 -25 29 0 30 -2 30 -45 0 -33 -4 -45 -15 -45 -11 0 -15 11 -15 42 0 69 -11
36 -13 -41 -2 -68 -1 -71 21 -71 12 0 22 -6 22 -14 0 -8 -10 -16 -22 -18 -25
-3 -28 -24 -17 -108 l6 -45 1 43 c2 30 6 42 17 42 11 0 15 -12 15 -45 0 -43
-1 -45 -30 -45 -16 0 -30 -4 -30 -10 0 -5 5 -10 11 -10 6 0 8 -7 5 -15 -3 -9
1 -18 9 -21 19 -8 20 -34 2 -34 -8 0 -13 -10 -13 -22 1 -18 -5 -23 -31 -25
-29 -2 -33 0 -33 21 0 15 -7 26 -17 28 -16 3 -16 4 0 20 9 9 17 24 17 32 0 9
5 16 10 16 6 0 10 5 10 10 0 6 -7 10 -15 10 -13 0 -14 13 -10 80 l6 80 -26 0
c-18 0 -25 5 -25 19 0 14 6 17 26 13 l26 -5 -7 76 c-6 66 -5 79 11 94 15 15
15 18 2 21 -10 2 -14 11 -10 27 2 15 0 25 -7 25 -6 0 -11 9 -11 20 0 11 5 20
11 20 7 0 10 17 7 45 l-3 45 37 0 c37 0 38 -1 38 -39z m158 -53 l3 -88 -31 0
c-20 0 -30 -5 -30 -15 0 -12 14 -15 65 -15 l66 0 -4 -45 c-3 -45 -3 -45 29
-45 18 0 36 -5 40 -12 7 -11 9 -146 2 -153 -6 -6 -33 -7 -140 -6 l-108 1 3
145 c2 124 0 145 -13 145 -12 0 -15 17 -17 90 l-2 91 67 -3 67 -3 3 -87z
m-1451 40 c-3 -8 -6 -5 -6 6 -1 11 2 17 5 13 3 -3 4 -12 1 -19z m1213 -284 c0
-8 -9 -14 -20 -14 -11 0 -20 4 -20 10 0 5 8 6 17 3 13 -5 15 -2 10 11 -4 10
-3 15 3 11 6 -3 10 -13 10 -21z m120 15 c0 -5 -4 -8 -9 -4 -5 3 -12 -5 -14
-17 -4 -20 -4 -19 -6 5 -1 18 4 27 14 27 8 0 15 -5 15 -11z m-122 -117 c3 -17
-2 -22 -17 -22 -14 0 -21 6 -21 18 0 38 33 41 38 4z m122 3 c0 -16 -6 -25 -15
-25 -9 0 -15 9 -15 25 0 16 6 25 15 25 9 0 15 -9 15 -25z m190 -90 l0 -35 -67
0 c-64 0 -79 -14 -24 -22 23 -3 25 -7 25 -59 l1 -56 -70 -1 -71 -2 1 60 c0 55
2 60 23 60 12 0 22 5 22 10 0 6 -4 10 -10 10 -5 0 -10 16 -10 35 l0 35 90 0
90 0 0 -35z m-308 -225 l1 -35 4 37 4 38 117 -3 117 -3 0 -65 c-1 -55 -4 -64
-20 -67 -17 -3 -17 -1 -5 7 12 9 10 11 -10 11 -23 1 -23 2 -5 9 14 6 21 19 23
42 1 22 -1 29 -6 21 -7 -10 -11 -10 -21 2 -10 12 -9 15 6 19 10 2 0 4 -22 4
-36 -1 -41 -4 -43 -26 -1 -14 6 -30 18 -38 29 -21 26 -53 -5 -53 -26 0 -33
-14 -14 -26 6 -3 14 -2 18 4 10 15 93 20 87 5 -6 -15 10 -18 19 -3 4 6 10 8
15 5 5 -3 11 -1 15 5 4 7 13 7 26 -1 11 -6 41 -9 67 -8 26 2 88 2 138 1 l91
-2 0 -35 0 -35 -151 -2 c-83 -1 -162 -2 -176 -2 -21 -1 -25 3 -22 25 2 17 -2
26 -11 26 -12 0 -14 -21 -11 -109 l3 -108 -34 0 c-19 0 -35 -4 -35 -10 0 -5
-11 -10 -25 -10 -14 0 -25 5 -25 10 0 6 -11 10 -25 10 -16 0 -25 -6 -25 -15 0
-10 -11 -15 -35 -15 -21 0 -35 5 -35 13 0 25 18 38 46 35 24 -2 29 1 29 20 0
12 -4 22 -10 21 -5 0 -9 -8 -7 -17 2 -15 1 -15 -10 -1 -7 8 -21 18 -30 22 -15
5 -18 1 -18 -28 0 -31 -3 -35 -25 -35 -14 0 -25 -4 -25 -10 0 -5 -12 -10 -26
-10 -16 0 -23 4 -18 11 5 8 -4 10 -30 7 l-36 -4 -1 101 c-1 55 -2 136 -3 180
-3 128 -7 123 80 121 l74 -1 2 -35z m-476 -61 c2 -54 0 -56 -78 -43 -36 6 -37
7 -36 50 l1 43 51 3 c28 2 53 2 56 0 3 -2 6 -26 6 -53z m668 42 c24 -27 11
-48 -15 -25 -19 17 -26 44 -11 44 5 0 17 -9 26 -19z m448 9 l29 0 -3 -67 c-2
-50 -7 -67 -16 -65 -8 1 -11 -2 -7 -8 3 -6 11 -8 16 -5 5 4 9 -2 9 -12 0 -12
-8 -19 -20 -20 -17 -2 -20 3 -16 25 2 15 5 31 5 35 1 5 6 5 11 2 6 -3 10 -1
10 4 0 6 -21 11 -50 11 -50 0 -50 0 -50 33 0 17 -3 43 -7 56 -6 23 -4 24 27
18 18 -4 46 -7 62 -7z m-1087 -46 c-4 -22 -3 -34 3 -30 13 8 42 -3 42 -15 0
-16 -48 -10 -54 7 -10 26 -7 74 5 74 7 0 9 -12 4 -36z m35 15 c0 -11 5 -17 10
-14 6 3 10 -1 10 -9 0 -17 -9 -20 -33 -10 -9 3 -12 14 -9 30 5 29 22 32 22 3z
m950 6 c0 -8 -4 -15 -10 -15 -5 0 -10 6 -10 13 0 8 -3 7 -10 -3 -8 -13 -11
-13 -27 3 -16 16 -16 17 20 17 26 0 37 -4 37 -15z m10 -51 c0 -21 -5 -24 -35
-24 -19 0 -36 3 -36 8 -8 46 -7 47 32 44 33 -4 39 -8 39 -28z m-720 -68 l0
-41 -182 2 -182 2 -2 36 -1 35 66 1 c100 2 224 8 227 12 2 2 19 1 39 -1 34 -4
35 -6 35 -46z m-380 34 c0 -5 -9 -10 -21 -10 -11 0 -17 5 -14 10 3 6 13 10 21
10 8 0 14 -4 14 -10z m10 -32 c0 -4 -12 -8 -26 -8 -14 0 -23 4 -19 9 6 11 45
10 45 -1z m-15 -29 c10 -15 -1 -23 -20 -15 -9 3 -13 10 -10 16 8 13 22 13 30
-1z m985 -93 l0 -63 -85 -1 -85 -1 0 64 0 64 78 3 c42 2 80 2 85 0 4 -2 7 -31
7 -66z m-710 -1 l0 -65 -72 -1 c-110 -1 -222 2 -226 6 -2 2 -5 31 -6 64 l-3
61 153 0 154 0 0 -65z m113 53 c-2 -5 -3 -33 -3 -63 l0 -55 -50 0 -50 0 0 66
0 65 53 -3 c28 -2 51 -6 50 -10z m697 -51 l0 -63 -45 -2 -45 -2 0 65 0 65 45
0 45 0 0 -63z m140 1 l0 -63 -64 0 -65 0 0 63 0 62 65 0 64 0 0 -62z m-630
-42 c0 -3 -4 -8 -10 -11 -5 -3 -10 -1 -10 4 0 6 5 11 10 11 6 0 10 -2 10 -4z
m158 -105 c3 -21 1 -21 -152 -21 -134 0 -155 -2 -150 -15 4 -8 1 -15 -5 -15
-17 0 -13 57 5 64 36 14 109 3 98 -15 -3 -5 19 -8 48 -7 50 1 51 2 11 5 -24 2
-43 9 -43 15 0 7 19 9 55 5 30 -3 55 -3 55 1 0 4 17 7 37 6 31 -1 39 -5 41
-23z"/>
<path d="M2584 1795 c-6 -11 -7 -33 -4 -50 5 -23 8 -26 14 -13 4 9 6 31 4 50
-3 30 -4 31 -14 13z"/>
<path d="M2610 1766 c0 -21 5 -36 12 -36 6 0 8 3 5 7 -4 3 3 11 16 17 31 16
28 40 -5 44 -26 3 -28 1 -28 -32z m40 14 c0 -5 -7 -10 -15 -10 -8 0 -15 5 -15
10 0 6 7 10 15 10 8 0 15 -4 15 -10z"/>
<path d="M1877 1743 c-8 -13 5 -73 14 -68 10 7 9 75 -2 75 -4 0 -10 -3 -12 -7z"/>
<path d="M1911 1708 c1 -39 2 -40 8 -13 l7 30 7 -29 c5 -15 10 -26 13 -23 9 8
-16 77 -27 77 -5 0 -8 -19 -8 -42z"/>
<path d="M1955 1730 c-4 -12 0 -26 9 -36 15 -14 16 -12 16 20 0 39 -15 48 -25
16z"/>
<path d="M2217 1735 c-4 -8 -2 -17 2 -20 5 -3 7 -14 4 -25 -3 -11 0 -20 6 -20
6 0 11 17 11 40 0 40 -13 53 -23 25z"/>
<path d="M2250 1715 c0 -19 5 -35 11 -35 6 0 9 9 6 20 -3 11 -1 18 4 14 11 -6
11 -2 3 20 -11 28 -24 17 -24 -19z"/>
<path d="M2293 1730 c3 -10 0 -21 -6 -23 -6 -2 -7 -9 -3 -15 14 -23 26 -12 26
23 0 19 -5 35 -11 35 -6 0 -9 -9 -6 -20z"/>
<path d="M2705 1530 c4 -6 11 -8 16 -5 14 9 11 15 -7 15 -8 0 -12 -5 -9 -10z"/>
<path d="M2555 1432 c-13 -9 -18 -72 -5 -72 5 0 10 7 10 15 0 20 10 19 25 -1
10 -14 12 -11 12 17 0 30 -11 49 -27 49 -3 0 -9 -4 -15 -8z m30 -22 c-3 -5
-10 -10 -16 -10 -5 0 -9 5 -9 10 0 6 7 10 16 10 8 0 12 -4 9 -10z"/>
<path d="M2507 1423 c-12 -11 -8 -25 4 -17 8 5 10 -1 7 -20 -3 -14 -1 -26 3
-26 5 0 9 16 9 35 0 33 -8 43 -23 28z"/>
<path d="M2480 1299 c0 -5 5 -7 10 -4 6 3 10 8 10 11 0 2 -4 4 -10 4 -5 0 -10
-5 -10 -11z"/>
<path d="M476 1422 c-2 -4 -1 -23 4 -42 l8 -35 1 43 c1 41 -3 50 -13 34z"/>
<path d="M510 1416 c-20 -25 -9 -61 19 -61 13 0 26 6 29 13 2 6 -1 12 -7 12
-6 0 -11 -4 -11 -10 0 -5 -4 -10 -10 -10 -5 0 -10 12 -10 26 0 22 4 25 21 21
16 -4 18 -3 8 9 -15 18 -23 18 -39 0z"/>
<path d="M1310 578 c-12 -11 -18 -23 -15 -26 4 -4 12 1 19 11 7 9 19 17 26 17
9 0 7 -7 -7 -22 -11 -13 -18 -31 -16 -40 7 -27 38 -21 66 12 l26 30 11 -35
c12 -37 17 -40 40 -25 13 9 13 11 0 19 -10 7 -17 6 -22 -2 -4 -7 -8 5 -8 26 0
34 -2 37 -24 33 -13 -2 -35 2 -49 9 -22 11 -28 11 -47 -7z m60 -38 c-13 -24
-27 -33 -35 -21 -7 12 25 52 37 45 4 -3 4 -14 -2 -24z"/>
<path d="M1540 585 c-9 -10 -9 -15 -1 -15 6 0 11 -7 11 -15 0 -8 5 -15 10 -15
6 0 10 9 10 21 0 13 -4 18 -12 13 -8 -5 -9 -2 -5 9 8 21 3 22 -13 2z"/>
<path d="M1520 518 l-25 -10 24 -9 c27 -11 34 -7 29 14 -2 11 -9 12 -28 5z"/>
<path d="M1312 475 c-11 -13 -7 -15 28 -15 30 0 40 -4 40 -16 0 -14 3 -14 15
-4 22 18 18 30 -10 30 -14 0 -25 5 -25 10 0 15 -33 11 -48 -5z"/>
<path d="M1474 411 c5 -8 56 -3 56 5 0 2 -14 4 -31 4 -16 0 -28 -4 -25 -9z"/>
<path d="M1380 388 c0 -7 5 -20 10 -28 7 -12 12 -12 22 -2 9 9 9 12 0 12 -7 0
-12 7 -12 15 0 8 -4 15 -10 15 -5 0 -10 -6 -10 -12z"/>
<path d="M1577 381 c-5 -22 1 -33 14 -25 12 7 12 44 0 44 -5 0 -11 -9 -14 -19z"/>
<path d="M1530 329 c0 -5 -4 -8 -9 -4 -5 3 -12 1 -15 -4 -9 -13 9 -22 28 -15
17 7 22 34 6 34 -5 0 -10 -5 -10 -11z"/>
<path d="M1430 321 c0 -10 30 -24 37 -17 3 3 2 9 -2 15 -8 13 -35 15 -35 2z"/>
<path d="M1920 491 c0 -5 11 -8 25 -8 13 0 22 3 19 8 -3 5 -14 9 -25 9 -10 0
-19 -4 -19 -9z"/>
<path d="M500 1950 c0 -5 5 -10 10 -10 6 0 10 5 10 10 0 6 -4 10 -10 10 -5 0
-10 -4 -10 -10z"/>
<path d="M1476 1933 c-6 -14 -5 -15 5 -6 7 7 10 15 7 18 -3 3 -9 -2 -12 -12z"/>
<path d="M1468 1903 c7 -3 16 -2 19 1 4 3 -2 6 -13 5 -11 0 -14 -3 -6 -6z"/>
<path d="M1273 1801 c-10 -15 -10 -21 0 -25 9 -3 9 -6 0 -13 -8 -5 -9 -14 -3
-23 14 -23 22 -6 18 39 -3 37 -4 40 -15 22z"/>
<path d="M810 1725 c-8 -9 -8 -15 -2 -15 6 0 13 -10 15 -22 3 -14 5 -9 6 15 1
41 -1 44 -19 22z"/>
<path d="M853 1705 c-10 -32 -1 -51 10 -22 4 9 8 8 16 -3 16 -23 22 -6 10 28
-14 41 -23 40 -36 -3z"/>
<path d="M1429 1701 c-13 -11 -21 -22 -18 -25 9 -9 59 18 59 32 0 17 -14 15
-41 -7z"/>
<path d="M1500 1707 c0 -15 48 -38 55 -27 5 9 -11 24 -37 33 -11 4 -18 2 -18
-6z"/>
<path d="M1361 1628 c-7 -20 3 -39 13 -27 11 13 16 49 6 49 -6 0 -14 -10 -19
-22z"/>
<path d="M1583 1636 c4 -10 7 -22 7 -27 0 -5 5 -9 11 -9 15 0 7 43 -10 48 -10
3 -12 0 -8 -12z"/>
<path d="M630 1630 c0 -5 5 -10 10 -10 6 0 10 5 10 10 0 6 -4 10 -10 10 -5 0
-10 -4 -10 -10z"/>
<path d="M820 1631 c0 -5 7 -11 15 -15 9 -3 15 0 15 9 0 8 -7 15 -15 15 -8 0
-15 -4 -15 -9z"/>
<path d="M1020 1630 c0 -5 7 -10 15 -10 8 0 15 5 15 10 0 6 -7 10 -15 10 -8 0
-15 -4 -15 -10z"/>
<path d="M357 1613 c-4 -3 -7 -21 -7 -40 0 -29 3 -33 25 -33 22 0 25 4 25 34
0 22 -6 36 -16 40 -19 7 -19 7 -27 -1z m33 -17 c0 -11 -19 -15 -25 -6 -3 5 1
10 9 10 9 0 16 -2 16 -4z m0 -36 c0 -5 -7 -10 -15 -10 -8 0 -15 5 -15 10 0 6
7 10 15 10 8 0 15 -4 15 -10z"/>
<path d="M317 1602 c-8 -11 4 -62 14 -62 6 0 9 16 7 35 -2 33 -11 44 -21 27z"/>
<path d="M430 1580 c0 -5 6 -10 14 -10 8 0 18 5 21 10 3 6 -3 10 -14 10 -12 0
-21 -4 -21 -10z"/>
<path d="M1590 1546 c0 -8 -2 -21 -5 -29 -5 -11 6 -14 51 -16 31 -1 61 -4 67
-8 6 -3 7 -1 3 5 -4 7 -27 12 -52 12 -40 0 -44 2 -44 25 0 14 -4 25 -10 25 -5
0 -10 -6 -10 -14z"/>
<path d="M1278 1523 c12 -2 32 -2 45 0 12 2 2 4 -23 4 -25 0 -35 -2 -22 -4z"/>
<path d="M1648 1523 c12 -2 30 -2 40 0 9 3 -1 5 -23 4 -22 0 -30 -2 -17 -4z"/>
<path d="M1180 1440 c0 -31 4 -50 12 -50 6 0 8 3 5 7 -4 3 -2 12 4 20 9 10 8
13 -1 13 -8 0 -11 10 -8 30 3 17 1 30 -4 30 -4 0 -8 -22 -8 -50z"/>
<path d="M1412 1473 c3 -20 58 -32 58 -14 0 6 -9 11 -20 11 -11 0 -20 5 -20
10 0 6 -5 10 -11 10 -6 0 -9 -8 -7 -17z"/>
<path d="M1518 1473 c-27 -7 -22 -23 7 -23 23 0 30 -10 26 -34 -1 -4 4 -15 10
-23 11 -12 14 -11 25 9 13 22 13 23 14 2 0 -30 44 -38 66 -13 10 11 23 19 31
19 7 0 13 5 13 10 0 6 -5 9 -12 8 -7 -2 -12 6 -13 16 0 27 -43 31 -67 7 -14
-15 -24 -18 -41 -12 -12 5 -21 16 -21 25 2 16 -6 18 -38 9z m151 -36 c17 -21
-23 -55 -44 -37 -11 9 -12 17 -4 31 11 22 32 25 48 6z"/>
<path d="M1403 1433 c-7 -2 -13 -17 -12 -31 0 -24 1 -25 9 -7 6 17 8 14 12
-15 4 -31 5 -29 6 13 1 26 1 47 0 46 -2 0 -9 -3 -15 -6z"/>
<path d="M1433 1395 c0 -27 2 -38 4 -22 2 15 2 37 0 50 -2 12 -4 0 -4 -28z"/>
<path d="M1533 1390 c0 -25 2 -35 4 -22 2 12 2 32 0 45 -2 12 -4 2 -4 -23z"/>
<path d="M1552 1375 c3 -16 12 -21 52 -23 26 -2 46 1 43 5 -3 5 -22 8 -41 7
-24 -1 -40 4 -46 15 -9 14 -10 13 -8 -4z"/>
<path d="M1333 1353 c9 -2 25 -2 35 0 9 3 1 5 -18 5 -19 0 -27 -2 -17 -5z"/>
<path d="M1240 983 l5 -48 3 43 c3 42 3 42 42 42 37 0 39 -1 43 -37 l4 -38 1
43 2 42 -53 0 -52 0 5 -47z"/>
<path d="M2100 31 c0 -5 5 -13 10 -16 6 -3 10 -2 10 4 0 5 -4 13 -10 16 -5 3
-10 2 -10 -4z"/>
<path d="M1468 13 c7 -3 16 -2 19 1 4 3 -2 6 -13 5 -11 0 -14 -3 -6 -6z"/>
</g>

<rect  style="stroke:#1a1a1a;stroke-width:1.4;stroke-miterlimit:4;stroke-dasharray:none;stroke-opacity:1"
       id="1b"
       fill="red"
       y="33"
       x="22"
       height="73"
       width="22" />
<text
       style="font-style:normal;font-weight:normal;font-size:14px;line-height:125%;font-family:Verdana;letter-spacing:0px;word-spacing:0px;fill-opacity:1;fill-rule:evenodd;stroke:none"
       xml:space="preserve"
       id="1bt"
       y="74"
       x="23"> 1B
</text>
<rect  style="stroke:#1a1a1a;stroke-width:1.4;stroke-miterlimit:4;stroke-dasharray:none;stroke-opacity:1"
       id="1d"
       fill="red"
       y="74"
       x="45"
       height="32"
       width="25" />
<text
       style="font-style:normal;font-weight:normal;font-size:14px;line-height:125%;font-family:Verdana;letter-spacing:0px;word-spacing:0px;fill-opacity:1;fill-rule:evenodd;stroke:none"
       xml:space="preserve"
       id="1dt"
       y="94"
       x="48"> 1D
</text>
<rect  style="stroke:#1a1a1a;stroke-width:1.4;stroke-miterlimit:4;stroke-dasharray:none;stroke-opacity:1"
       id="1a"
       fill="red"
       y="43"
       x="45"
       height="30"
       width="78" />
<text
       style="font-style:normal;font-weight:normal;font-size:14px;line-height:125%;font-family:Verdana;letter-spacing:0px;word-spacing:0px;fill-opacity:1;fill-rule:evenodd;stroke:none"
       xml:space="preserve"
       id="1at"
       y="63"
       x="75"> 1A
</text>
<rect  style="stroke:#1a1a1a;stroke-width:1.4;stroke-miterlimit:4;stroke-dasharray:none;stroke-opacity:1"
       id="t3"
       fill="red"
       y="43"
       x="173"
       height="22"
       width="39" />
<text
       style="font-style:normal;font-weight:normal;font-size:14px;line-height:125%;font-family:Verdana;letter-spacing:0px;word-spacing:0px;fill-opacity:1;fill-rule:evenodd;stroke:none"
       xml:space="preserve"
       id="t3t"
       y="59"
       x="181"> T3
</text>
<rect  style="stroke:#1a1a1a;stroke-width:1.4;stroke-miterlimit:4;stroke-dasharray:none;stroke-opacity:1"
       id="t4"
       fill="red"
       y="43"
       x="212"
       height="22"
       width="39" />
<text
       style="font-style:normal;font-weight:normal;font-size:14px;line-height:125%;font-family:Verdana;letter-spacing:0px;word-spacing:0px;fill-opacity:1;fill-rule:evenodd;stroke:none"
       xml:space="preserve"
       id="t4t"
       y="59"
       x="221"> T4
</text>
<rect  style="stroke:#1a1a1a;stroke-width:1.4;stroke-miterlimit:4;stroke-dasharray:none;stroke-opacity:1"
       id="1p"
       fill="red"
       y="33"
       x="252"
       height="28"
       width="22" />
<text
       style="font-style:normal;font-weight:normal;font-size:14px;line-height:125%;font-family:Verdana;letter-spacing:0px;word-spacing:0px;fill-opacity:1;fill-rule:evenodd;stroke:none"
       xml:space="preserve"
       id="1pt"
       y="52"
       x="254"> 1P
</text>
<rect  style="stroke:#1a1a1a;stroke-width:1.4;stroke-miterlimit:4;stroke-dasharray:none;stroke-opacity:1"
       id="1r"
       fill="red"
       y="78"
       x="239"
       height="28"
       width="34" />
<text
       style="font-style:normal;font-weight:normal;font-size:14px;line-height:125%;font-family:Verdana;letter-spacing:0px;word-spacing:0px;fill-opacity:1;fill-rule:evenodd;stroke:none"
       xml:space="preserve"
       id="1rt"
       y="97"
       x="247"> 1R
</text>
</svg>
