<?xml version="1.0" standalone="no"?>
<!DOCTYPE svg PUBLIC "-//W3C//DTD SVG 20010904//EN"
 "http://www.w3.org/TR/2001/REC-SVG-20010904/DTD/svg10.dtd">
<svg version="1.0" xmlns="http://www.w3.org/2000/svg"
 width="300.000000pt" height="235.000000pt" viewBox="0 0 300.000000 235.000000"
 preserveAspectRatio="xMidYMid meet">
<metadata>
Created by potrace 1.10, written by Peter Selinger 2001-2011
</metadata>
<g transform="translate(0.000000,235.000000) scale(0.100000,-0.100000)"
fill="#000000" stroke="none">
<path d="M1736 2204 c-4 -9 -4 -19 -1 -22 2 -3 7 3 11 12 4 9 4 19 1 22 -2 3
-7 -3 -11 -12z"/>
<path d="M1237 2203 c-11 -10 -8 -63 3 -63 6 0 10 16 10 35 0 36 -2 40 -13 28z"/>
<path d="M1737 2163 c-2 -5 -4 -37 -3 -72 1 -48 5 -65 16 -68 13 -4 13 -3 0 6
-11 8 -11 11 -2 11 9 0 10 5 4 15 -4 9 -5 38 -2 65 6 44 -1 65 -13 43z"/>
<path d="M1230 2090 c0 -16 5 -30 10 -30 6 0 10 14 10 30 0 17 -4 30 -10 30
-5 0 -10 -13 -10 -30z"/>
<path d="M1233 2026 c13 -34 -12 -36 -430 -36 -325 0 -412 3 -410 13 1 9 -30
12 -126 14 l-127 1 -1 -106 c-1 -59 -1 -115 0 -124 2 -14 -5 -18 -26 -18 -33
0 -103 -63 -84 -74 6 -4 11 -2 11 5 0 8 4 8 16 -2 12 -10 15 -28 12 -80 -2
-45 1 -65 8 -62 6 2 16 -3 23 -11 7 -8 19 -12 27 -9 10 4 14 -2 14 -21 0 -29
-9 -33 -29 -13 -11 10 -13 10 -7 0 9 -16 -6 -17 -22 -1 -17 17 -15 28 5 21 11
-4 14 -3 9 6 -4 6 -16 9 -27 6 -14 -5 -21 0 -27 16 -6 16 -11 19 -16 10 -13
-21 52 -81 88 -81 l31 0 -3 -80 c-2 -49 0 -80 6 -80 6 0 11 45 12 113 1 61 2
123 2 137 0 14 -1 112 -2 218 -1 106 0 195 3 198 3 3 50 7 106 9 l101 3 0
-174 c0 -104 4 -175 10 -179 6 -3 10 -1 10 4 0 7 48 11 140 11 87 0 140 4 140
10 0 6 -53 10 -140 10 l-139 0 1 145 0 145 92 0 c58 0 96 -4 104 -12 9 -9 12
-9 12 0 0 13 17 13 310 12 47 -1 87 -5 88 -11 3 -6 8 -6 15 0 12 9 69 14 160
12 l47 -1 0 -145 0 -145 -45 0 c-25 0 -45 -4 -45 -10 0 -5 19 -10 43 -10 42 0
43 0 43 -35 l0 -35 -188 2 c-103 2 -188 0 -188 -4 0 -5 7 -8 16 -8 10 0 14 -6
10 -15 -4 -12 4 -15 39 -15 l45 0 0 -60 0 -60 -100 0 -100 0 0 61 0 61 39 -4
c35 -3 38 -1 39 22 l1 25 -220 -2 c-120 -1 -219 1 -219 5 0 5 5 13 12 20 9 9
7 12 -12 12 -18 0 -21 -3 -11 -9 9 -6 10 -11 2 -15 -17 -11 -14 -96 4 -96 11
0 13 7 9 29 l-6 30 63 -2 c63 -2 64 -2 61 -29 -2 -20 2 -28 13 -28 8 0 15 -7
15 -15 0 -8 -6 -15 -14 -15 -12 0 -15 -19 -14 -96 1 -73 4 -94 14 -90 7 3 15
0 18 -7 2 -7 5 18 5 56 l1 67 201 0 c196 0 201 0 196 -20 -5 -19 0 -20 119
-20 122 0 125 -1 149 -26 22 -24 25 -36 25 -103 l0 -76 -230 3 -230 4 0 -86 0
-86 -164 0 -165 0 -3 28 c-2 20 -9 28 -28 30 -25 3 -26 5 -23 67 2 39 -1 65
-7 65 -6 0 -10 -57 -10 -150 l0 -150 -30 0 -30 0 0 -386 0 -385 648 1 c356 1
806 1 1000 1 l352 -1 0 -35 0 -35 175 0 c96 0 176 3 176 8 1 4 3 190 5 415 l3
407 -24 0 c-27 0 -32 9 -13 28 9 9 9 12 0 12 -8 0 -12 24 -12 80 0 44 -3 80
-7 80 -5 0 -6 27 -5 60 3 38 0 60 -7 60 -7 0 -10 -46 -8 -144 1 -110 5 -142
15 -139 17 7 15 -12 -3 -27 -12 -10 -14 -49 -14 -218 1 -114 0 -245 0 -292
l-1 -85 -190 0 c-104 0 -190 3 -191 8 0 4 0 32 0 62 0 30 0 155 0 278 l1 224
178 -1 c105 -1 180 -5 184 -11 4 -6 8 -2 8 8 0 11 -8 17 -21 17 -15 0 -20 5
-17 23 2 15 9 21 21 19 9 -2 17 2 17 8 0 6 -12 10 -27 8 -24 -3 -28 -7 -25
-31 l3 -27 -160 1 -161 1 0 69 0 69 40 0 40 0 0 -60 c0 -33 4 -60 10 -60 6 0
10 51 10 134 l0 133 -45 1 c-25 1 -45 -3 -45 -8 0 -6 16 -10 35 -10 l35 0 0
-50 c0 -27 1 -53 3 -56 1 -4 -17 -7 -41 -8 l-42 -1 0 62 c0 73 0 73 -118 70
l-72 -2 0 53 c0 30 -4 52 -11 52 -6 0 -9 -20 -8 -51 l3 -51 -135 -1 -134 -2
-3 75 c-3 71 -1 77 25 102 27 25 33 26 165 30 75 1 132 1 128 -2 -4 -3 78 -5
183 -5 l190 0 -2 -78 -2 -79 208 7 c114 4 209 8 210 9 2 2 3 70 4 152 l0 149
26 12 c35 17 40 10 14 -18 -14 -15 -21 -36 -21 -60 0 -32 3 -36 20 -32 12 3
20 14 20 27 0 12 14 35 30 51 29 27 30 33 30 110 0 79 -1 82 -35 115 -25 25
-33 39 -29 55 5 20 2 22 -20 18 -39 -8 -38 -28 4 -75 22 -24 39 -37 40 -29 0
10 3 11 14 2 10 -9 14 -34 14 -86 -1 -72 -1 -74 -39 -111 -27 -26 -39 -33 -39
-22 0 9 12 26 28 38 18 14 23 23 15 26 -9 4 -13 29 -13 73 0 69 -10 91 -42 91
-14 0 -18 8 -18 33 0 24 -3 28 -10 17 -8 -13 -10 -12 -10 3 0 9 5 17 10 17 6
0 10 45 10 115 l0 115 -131 0 c-106 0 -130 -3 -126 -13 4 -12 -65 -13 -404
-12 -256 2 -414 6 -422 13 -7 6 -107 9 -264 8 -239 -2 -253 -1 -253 16 0 10
-5 18 -11 18 -6 0 -9 -6 -6 -14z m280 -33 c-7 -2 -21 -2 -30 0 -10 3 -4 5 12
5 17 0 24 -2 18 -5z m1144 0 c-3 -5 17 -8 43 -8 26 0 46 3 43 8 -2 4 3 7 12 7
9 0 14 -4 11 -8 -3 -5 8 -6 25 -4 26 4 29 1 29 -22 0 -15 4 -25 9 -22 10 7 9
-20 -2 -30 -4 -4 -7 -52 -7 -106 l0 -98 -50 0 c-77 0 -59 -16 25 -23 41 -3 79
-8 85 -12 14 -9 13 -102 -2 -112 -7 -4 -44 -8 -82 -9 -45 0 -71 -5 -74 -12 -2
-8 14 -12 53 -12 52 0 57 -2 52 -20 -3 -11 -1 -20 4 -20 5 0 9 -9 9 -21 0 -11
-4 -17 -10 -14 -6 4 -9 -5 -8 -19 1 -15 6 -26 10 -26 4 0 8 -10 7 -22 0 -22
-1 -22 -9 -3 -6 14 -8 5 -8 -33 0 -34 4 -49 9 -40 6 9 9 7 9 -9 0 -13 -5 -23
-10 -23 -6 0 -9 -3 -9 -7 4 -25 -8 -28 -98 -26 -64 1 -89 -1 -73 -7 l25 -8
-27 -1 c-26 -1 -33 7 -29 37 1 6 -5 12 -13 12 -9 0 -12 -7 -10 -17 5 -16 -2
-18 -59 -15 l-65 4 -1 118 -2 118 63 -2 63 -1 0 -82 c0 -62 3 -83 13 -83 10 0
12 31 11 141 -1 123 -3 140 -16 134 -9 -3 -134 -6 -278 -6 -257 0 -263 0 -258
-20 3 -10 9 -22 14 -25 4 -2 4 -16 -1 -29 -5 -14 -6 -25 -2 -25 4 0 7 -22 7
-50 0 -48 -1 -50 -28 -50 l-28 0 3 78 c2 55 7 76 16 74 6 -1 12 2 12 8 0 5 -4
10 -10 10 -5 0 -10 6 -10 14 0 11 -19 14 -82 14 -46 0 -75 -2 -66 -5 10 -2 21
-15 24 -29 5 -18 12 -24 33 -23 23 2 24 2 4 6 -35 7 -27 23 10 23 l32 0 0 -53
c0 -28 -4 -58 -9 -66 -7 -10 -6 -12 3 -6 9 5 12 2 9 -10 -3 -16 -15 -18 -103
-16 -55 1 -105 7 -112 13 -8 6 -13 35 -13 74 l0 64 40 0 c22 0 40 -4 40 -10 0
-5 -13 -10 -30 -10 -21 0 -30 -5 -30 -16 0 -10 6 -14 15 -10 9 3 15 0 15 -9 0
-8 5 -15 11 -15 6 0 8 9 4 20 -4 14 -2 20 8 20 13 0 34 47 25 55 -7 6 -118 11
-118 5 0 -4 -10 -6 -22 -4 -81 11 -118 11 -118 -1 0 -8 -5 -15 -12 -17 -7 -3
-8 -10 -4 -17 6 -9 11 -10 19 -2 6 6 39 11 74 11 l63 0 0 -67 c0 -45 5 -72 15
-83 13 -15 12 -19 -15 -45 -27 -26 -32 -27 -55 -15 -26 14 -29 30 -5 38 7 3
10 0 6 -7 -5 -7 -1 -9 8 -5 9 3 16 10 16 16 0 5 -6 6 -12 2 -8 -4 -10 -3 -5 2
5 5 14 9 19 9 6 0 12 12 12 28 1 15 -2 27 -6 27 -4 0 -8 -5 -8 -12 0 -6 -10
-22 -22 -35 -17 -18 -32 -23 -70 -23 -36 0 -48 4 -48 15 0 8 5 15 10 15 16 0
12 40 -6 57 -14 14 -15 10 -12 -38 l3 -54 43 -3 c74 -5 45 -20 -37 -18 -44 1
-77 -2 -74 -7 3 -4 -10 -5 -29 -2 -18 3 -64 7 -102 9 -53 1 -73 -2 -91 -16
-21 -17 -23 -16 -50 12 -28 29 -28 30 -10 51 16 16 19 33 17 88 l-3 68 60 1
c40 0 64 -5 72 -14 20 -24 28 -5 12 27 -11 22 -18 28 -26 20 -17 -17 -112 -14
-127 4 -10 12 -10 15 1 16 11 0 11 2 1 6 -10 4 -10 8 -1 19 14 17 110 19 127
2 9 -9 13 -7 18 8 9 24 65 84 80 84 7 0 9 40 6 120 l-4 120 37 0 37 0 -4 -120
c-2 -66 0 -120 5 -120 13 0 77 -71 77 -86 0 -8 5 -14 10 -14 6 0 10 4 10 10 0
13 120 9 121 -4 1 -6 1 -17 0 -23 -1 -7 3 -13 9 -13 5 0 10 11 10 25 0 22 4
25 34 25 19 0 38 5 41 10 4 6 -10 10 -34 10 l-41 0 1 143 1 142 97 -3 c53 -2
103 -3 111 -3 8 0 101 0 205 0 226 0 198 0 315 3 l95 3 0 -140 0 -140 -142 -3
c-84 -1 -143 -7 -143 -12 0 -6 -5 -10 -11 -10 -5 0 -7 5 -4 10 3 6 1 10 -4 10
-6 0 -11 -6 -11 -12 0 -10 -2 -10 -9 0 -11 17 -384 18 -390 1 -2 -8 -6 -8 -11
1 -5 9 -8 8 -12 -2 -5 -11 60 -13 369 -11 246 2 372 -1 368 -7 -3 -6 1 -10 10
-10 14 0 16 19 15 168 -1 92 -1 173 -1 180 1 6 10 12 22 12 11 0 18 -3 16 -7z
m-1243 -9 c13 -5 16 -25 16 -118 0 -62 -3 -116 -7 -120 -5 -4 -8 -13 -8 -19 0
-22 -60 -46 -117 -46 l-58 -1 0 140 c0 77 0 143 0 148 -1 13 146 27 174 16z
m289 -4 l47 0 0 -150 0 -150 -59 0 c-40 0 -63 5 -71 15 -7 8 -16 12 -21 9 -5
-3 -6 3 -2 12 5 14 3 16 -11 11 -9 -4 -15 -3 -12 2 3 5 -1 14 -9 21 -12 10
-15 37 -15 120 0 120 1 122 70 114 19 -2 56 -3 83 -4z m1134 -142 c-3 -7 -5
-2 -5 12 0 14 2 19 5 13 2 -7 2 -19 0 -25z m76 -105 c24 -27 16 -30 -13 -6
-11 10 -20 27 -19 38 0 14 2 16 6 5 3 -8 15 -25 26 -37z m-2818 7 c-10 -11
-14 -20 -9 -20 5 0 15 10 22 21 16 25 39 11 28 -17 -4 -9 -9 -14 -13 -10 -3 3
-15 -1 -25 -10 -14 -14 -21 -14 -33 -4 -13 11 -12 15 3 36 9 13 23 24 31 24
11 0 10 -5 -4 -20z m55 -70 c0 -11 -4 -20 -10 -20 -5 0 -10 -11 -10 -25 0 -14
4 -25 9 -25 5 0 11 -9 14 -19 6 -26 -27 -34 -47 -12 -15 17 -17 85 -3 109 13
20 47 15 47 -8z m470 -107 c0 -16 8 -18 58 -15 l59 4 0 -61 0 -61 -93 0 -94 0
0 61 c0 57 1 61 21 56 14 -4 19 -2 15 8 -6 15 2 25 21 25 7 0 13 -8 13 -17z
m520 9 c0 -4 17 -6 38 -4 l38 4 1 -64 c1 -91 -7 -98 -126 -98 l-96 0 -1 36
c-1 32 1 35 21 30 17 -4 24 -1 28 15 5 20 -17 39 -30 25 -4 -3 -1 -6 5 -6 7 0
12 -4 12 -10 0 -5 -8 -10 -18 -10 -15 0 -19 8 -20 40 l-2 40 45 0 c46 0 54 -7
33 -28 -9 -9 -8 -12 5 -12 9 0 17 7 17 15 0 9 10 15 23 16 21 1 21 1 -3 9
l-25 8 28 1 c15 1 27 -2 27 -7z m1169 1 c-5 -30 3 -34 63 -32 l63 3 0 -77 0
-77 -167 0 -168 0 0 46 c0 44 1 45 28 42 24 -3 27 -7 24 -35 -2 -17 2 -34 8
-38 7 -4 10 14 8 59 -1 36 -6 66 -11 66 -4 0 -7 -8 -5 -17 2 -13 -5 -19 -24
-21 -24 -3 -28 0 -28 22 0 26 0 26 85 26 78 0 85 2 85 20 0 13 7 20 20 20 11
0 19 -3 19 -7z m289 -43 c0 -23 -4 -30 -18 -30 -26 0 -34 17 -14 28 14 8 14
10 -5 15 -17 4 -21 1 -21 -19 0 -21 -5 -24 -35 -24 -32 0 -35 2 -35 30 l0 30
63 0 64 0 1 -30z m-1622 -106 c1 -9 0 -13 -4 -10 -3 4 -7 14 -8 22 -1 9 0 13
4 10 3 -4 7 -14 8 -22z m444 -130 c0 -38 3 -45 18 -42 13 3 17 13 17 46 0 42
0 42 38 42 37 0 37 0 37 -40 0 -29 4 -40 15 -40 11 0 15 11 15 40 l0 40 58 0
c32 0 63 -5 70 -12 7 -7 12 -43 12 -90 l0 -78 -30 0 c-23 0 -30 -4 -30 -20 0
-18 7 -20 73 -21 39 0 66 -3 59 -6 -10 -4 -10 -8 -1 -19 8 -10 8 -14 0 -14 -6
0 -11 -11 -11 -25 0 -23 3 -25 50 -25 l50 0 -6 -30 c-4 -19 -2 -30 5 -30 6 0
10 -14 10 -32 l-1 -33 -8 30 c-7 24 -8 19 -7 -25 l2 -55 -46 1 c-44 1 -46 0
-47 -28 0 -18 4 -28 14 -28 8 0 14 7 14 15 0 10 10 15 27 15 49 0 63 24 63
110 0 68 -3 79 -25 100 -16 15 -31 21 -45 17 -20 -5 -21 -2 -18 45 l3 51 200
-2 c109 -1 201 -4 204 -7 3 -2 5 -95 5 -207 l1 -202 -205 2 c-160 1 -206 5
-208 15 -2 10 -21 12 -77 10 -41 -2 -75 -8 -75 -13 0 -5 14 -9 30 -9 25 0 30
-4 30 -25 0 -18 5 -25 20 -25 11 0 20 7 20 15 0 13 32 15 229 15 l229 0 5 -27
c3 -15 3 -50 0 -78 l-5 -50 -129 3 -128 3 -3 27 -3 27 -103 0 c-75 0 -102 3
-102 13 0 21 -28 13 -32 -10 -3 -20 -9 -22 -70 -23 -68 -1 -68 -1 -68 27 0 33
-27 39 -32 8 -2 -12 -6 -21 -10 -20 -5 0 -21 0 -38 0 -23 0 -30 4 -30 20 0 11
-7 20 -15 20 -9 0 -15 -9 -15 -25 0 -24 -2 -24 -70 -22 -59 2 -70 5 -70 19 0
11 -8 18 -20 18 -11 0 -20 -3 -20 -8 0 -4 -44 -7 -97 -7 l-98 0 -3 -27 -3 -28
-119 0 -118 0 -4 45 c-2 26 1 45 7 46 6 0 5 3 -1 5 -6 3 -9 16 -6 29 l4 25
219 0 c188 0 219 -2 219 -15 0 -8 9 -15 20 -15 13 0 20 7 20 20 0 16 7 20 35
20 24 0 33 4 29 13 -3 10 -23 13 -70 11 -50 -1 -67 1 -71 13 -3 8 -1 19 6 26
6 6 11 22 11 35 0 23 -3 24 -46 19 l-46 -5 5 57 c2 31 2 44 0 29 -2 -16 -7
-28 -11 -28 -10 0 -6 50 6 80 5 14 6 29 2 34 -18 19 -27 -8 -26 -78 1 -84 18
-116 61 -116 23 0 25 -4 25 -43 l0 -43 -197 1 -197 1 0 202 -1 202 90 1 c98 1
273 1 292 0 7 -1 12 -19 11 -49 0 -44 -2 -48 -25 -47 -15 0 -28 -6 -30 -12 -3
-9 9 -13 41 -13 42 0 46 2 46 25 0 14 -4 25 -8 25 -4 0 -8 9 -8 20 0 18 7 20
72 20 67 0 72 1 67 20 -4 14 -14 20 -32 20 -26 0 -26 0 -26 78 0 42 4 83 8 90
5 7 31 12 68 12 l59 0 0 -46z m1293 -61 c-7 -2 -19 -2 -25 0 -7 3 -2 5 12 5
14 0 19 -2 13 -5z m-2289 -199 c21 -21 20 -34 -3 -34 -18 0 -35 33 -23 44 8 8
9 8 26 -10z m356 -446 l0 -398 -196 0 -197 0 5 45 c3 24 2 42 -2 40 -5 -3 -6
3 -4 12 2 10 6 157 8 328 3 171 5 324 5 340 l1 30 190 0 190 0 0 -397z m-402
162 c0 -66 -5 -120 -9 -120 -5 0 -9 -7 -9 -15 0 -8 4 -15 10 -15 5 0 7 -27 4
-67 -2 -38 -5 -92 -6 -120 0 -29 -5 -53 -9 -53 -5 0 -9 -8 -9 -17 0 -15 2 -16
10 -3 7 10 10 -13 10 -75 l0 -90 103 -1 c56 -1 150 -2 209 -3 91 -1 106 -3
102 -16 -5 -13 -40 -15 -225 -15 l-219 0 0 365 c0 355 1 365 19 365 19 0 20
-7 19 -120z m2282 44 c0 -46 -3 -63 -12 -60 -7 1 -10 1 -5 -1 4 -3 4 -10 1
-15 -4 -7 -2 -8 4 -4 8 5 11 -56 11 -224 0 -221 -1 -230 -19 -230 -18 0 -20 7
-20 90 0 65 3 90 13 90 8 0 9 2 1 8 -8 5 -12 58 -12 160 -1 126 1 154 13 159
8 3 15 10 15 15 0 6 -6 5 -15 -2 -13 -11 -15 -6 -15 38 0 45 2 50 20 45 17 -5
20 -14 20 -69z m-1410 -249 l0 -75 -100 0 -100 0 0 38 c0 20 3 54 6 75 l7 37
93 0 94 0 0 -75z m250 57 c0 -5 37 -9 83 -10 45 0 90 -1 100 -1 16 -1 18 -10
15 -73 l-3 -72 -50 2 c-27 1 -55 -1 -62 -6 -16 -10 1 -37 17 -27 6 4 31 8 55
9 42 2 43 1 40 -29 -1 -16 0 -20 2 -7 2 12 9 20 14 17 5 -4 9 0 9 8 0 11 22
13 123 10 l122 -3 0 57 0 58 98 2 97 2 0 -145 0 -144 79 0 79 0 4 -60 3 -60
-67 0 c-48 0 -68 4 -68 13 0 9 -2 9 -9 -1 -10 -16 -53 -12 -59 6 -2 8 8 12 32
12 34 0 35 1 33 35 -3 36 -8 41 -30 31 -9 -5 -9 -7 1 -12 31 -15 5 -24 -68
-24 l-80 0 -6 -29 -6 -29 -141 1 c-102 2 -141 5 -145 15 -4 13 16 16 116 12
38 -1 62 2 62 9 0 6 -7 7 -17 4 -12 -5 -14 -3 -8 7 7 11 -3 12 -49 6 l-57 -6
3 77 c3 71 5 78 23 76 90 -8 189 -6 193 5 3 9 -30 12 -130 13 -73 0 -184 1
-245 2 -103 2 -143 -7 -93 -20 18 -5 20 -14 20 -93 l0 -87 -40 0 -40 0 0 85
c0 69 3 87 18 98 15 12 12 13 -25 14 -23 0 -44 5 -46 13 -4 9 -7 9 -15 -1 -10
-14 -42 -6 -42 12 0 7 -3 6 -9 -2 -11 -17 -44 -22 -54 -8 -6 7 -10 7 -13 1 -2
-6 -66 -9 -169 -7 -142 3 -165 1 -165 -12 0 -13 24 -15 165 -13 l165 2 0 -72
c0 -58 -3 -73 -15 -73 -12 0 -15 14 -15 68 0 38 -4 62 -8 54 -5 -7 -8 -40 -7
-72 1 -55 0 -60 -19 -60 -14 0 -17 3 -9 8 7 4 -38 8 -100 9 -65 0 -104 -3 -92
-8 19 -7 19 -8 -2 -8 -13 -1 -23 3 -23 8 0 5 -30 9 -67 9 l-68 -1 -3 70 -3 70
26 -4 c22 -5 25 -2 26 23 1 16 0 39 -1 52 l-1 22 190 0 c142 0 191 -3 191 -12
0 -9 3 -9 12 0 16 16 105 16 111 0 4 -10 8 -9 16 2 19 26 12 30 -54 30 l-65 0
1 76 1 76 51 -5 c29 -3 72 -2 97 2 63 12 70 12 70 3z m421 -24 c1 -18 1 -51 2
-73 l1 -40 -95 -3 -94 -3 -1 76 -1 75 94 0 93 0 1 -32z m-1104 -48 c1 -11 -2
-22 -8 -25 -5 -4 -9 5 -9 19 0 30 15 35 17 6z m139 8 c4 -5 20 -8 36 -8 27 0
28 -2 28 -45 l0 -45 -75 0 -75 0 0 -39 c0 -30 -4 -40 -19 -44 -11 -3 -21 -3
-23 -2 -2 2 -2 46 0 97 l3 95 59 -1 c32 -1 62 -4 66 -8z m1244 -13 c0 -8 -4
-16 -8 -19 -4 -2 -8 6 -8 19 0 13 4 21 8 19 4 -3 8 -11 8 -19z m-5 -45 c3 -5
1 -10 -4 -10 -6 0 -11 5 -11 10 0 6 2 10 4 10 3 0 8 -4 11 -10z m1 -75 c1 -8
-2 -13 -7 -9 -5 3 -9 12 -9 21 0 19 13 9 16 -12z m-1386 -45 c0 -5 -2 -10 -4
-10 -3 0 -8 5 -11 10 -3 6 -1 10 4 10 6 0 11 -4 11 -10z m540 -21 c0 -6 15 -9
38 -7 l37 3 3 -93 c2 -73 0 -93 -10 -89 -7 2 -21 -3 -31 -12 -17 -14 -20 -14
-30 0 -16 21 -98 33 -90 13 4 -12 -33 -14 -231 -14 -203 0 -236 2 -236 15 0
13 29 15 200 15 153 0 200 -3 201 -12 0 -10 2 -10 6 0 2 6 15 12 27 12 37 0
46 19 46 96 0 66 2 72 19 67 10 -3 22 0 25 6 9 14 26 14 26 0z m-543 -61 c-2
-13 -4 -3 -4 22 0 25 2 35 4 23 2 -13 2 -33 0 -45z m885 46 c3 -2 5 -12 3 -22
-2 -9 -4 -27 -4 -39 -1 -18 -7 -23 -26 -23 -22 0 -25 -4 -25 -35 0 -19 5 -35
10 -35 6 0 10 13 10 28 0 19 5 29 15 29 14 0 15 -7 15 -64 0 -5 -12 -9 -28
-10 -15 -1 -39 -5 -54 -9 -18 -4 -28 -2 -28 5 0 5 -7 8 -15 5 -13 -5 -15 8
-15 84 l0 91 43 3 c39 4 84 0 99 -8z m495 -6 c-3 -8 -6 -5 -6 6 -1 11 2 17 5
13 3 -3 4 -12 1 -19z m-437 -58 c0 -60 -3 -70 -17 -70 -16 0 -18 9 -15 70 3
52 7 70 18 70 11 0 14 -16 14 -70z m454 24 c3 -8 2 -12 -4 -9 -6 3 -10 10 -10
16 0 14 7 11 14 -7z m456 -129 l0 -96 -159 3 -160 3 0 92 0 93 159 0 160 0 0
-95z m-1757 28 c-7 -2 -21 -2 -30 0 -10 3 -4 5 12 5 17 0 24 -2 18 -5z m210 0
c-7 -2 -21 -2 -30 0 -10 3 -4 5 12 5 17 0 24 -2 18 -5z m1010 -10 c-7 -2 -21
-2 -30 0 -10 3 -4 5 12 5 17 0 24 -2 18 -5z m-13 -28 c0 -11 -12 -15 -50 -15
-38 0 -50 4 -50 15 0 11 12 15 50 15 38 0 50 -4 50 -15z"/>
<path d="M1515 1640 c3 -5 8 -10 11 -10 2 0 4 5 4 10 0 6 -5 10 -11 10 -5 0
-7 -4 -4 -10z"/>
<path d="M2824 1635 c-9 -21 3 -45 21 -45 10 0 15 10 15 30 0 32 -26 43 -36
15z"/>
<path d="M2590 1620 c0 -13 11 -13 30 0 12 8 11 10 -7 10 -13 0 -23 -4 -23
-10z"/>
<path d="M1416 1522 c-6 -10 9 -25 36 -35 9 -3 19 0 22 9 3 9 -1 14 -12 14
-10 0 -23 5 -29 11 -7 7 -13 7 -17 1z"/>
<path d="M1538 1513 c-10 -2 -18 -11 -18 -18 0 -17 42 -5 48 13 4 12 0 13 -30
5z"/>
<path d="M1940 1475 c0 -36 3 -43 15 -39 12 5 13 10 4 20 -10 13 -6 18 14 15
4 0 7 4 7 9 0 6 -7 10 -15 10 -21 0 -19 18 3 23 13 4 11 5 -5 6 -21 1 -23 -4
-23 -44z"/>
<path d="M1259 1460 c-4 -43 -2 -59 11 -73 16 -17 18 -17 23 -2 4 10 3 14 -4
10 -6 -4 -9 -1 -8 6 1 8 -1 21 -4 29 -3 8 -8 31 -9 50 -3 28 -5 25 -9 -20z"/>
<path d="M1638 1488 c3 -12 -1 -18 -12 -18 -13 0 -15 -6 -10 -27 9 -38 11 -40
33 -38 31 2 61 35 61 65 0 25 -4 28 -38 32 -33 3 -38 1 -34 -14z m42 -52 c-18
-19 -21 -19 -36 -4 -17 16 -11 43 7 32 5 -3 9 -2 8 3 -4 22 3 24 21 8 l21 -19
-21 -20z"/>
<path d="M1287 1493 c-12 -11 -7 -31 9 -37 8 -3 12 -2 9 4 -7 12 23 26 33 16
3 -4 0 -11 -8 -17 -11 -7 -8 -8 12 -5 15 3 29 -1 32 -7 2 -7 5 -4 5 6 1 9 -6
17 -14 17 -8 0 -15 7 -15 15 0 15 -50 22 -63 8z"/>
<path d="M1720 1490 c0 -5 5 -10 11 -10 5 0 7 5 4 10 -3 6 -8 10 -11 10 -2 0
-4 -4 -4 -10z"/>
<path d="M1404 1466 c-6 -6 -9 -17 -7 -23 2 -6 -4 -10 -14 -8 -10 1 -24 -2
-31 -8 -10 -8 -22 -5 -44 8 l-31 18 19 -25 c17 -22 22 -24 63 -16 26 5 49 4
55 -1 8 -7 12 -4 12 10 0 10 -5 19 -11 19 -5 0 -5 4 2 8 7 4 9 13 5 19 -5 8
-10 8 -18 -1z"/>
<path d="M1824 1471 c3 -5 -1 -11 -8 -14 -8 -3 -17 -1 -20 6 -2 7 -5 5 -5 -4
-1 -10 9 -19 22 -21 18 -4 23 0 25 19 1 13 -3 23 -9 23 -5 0 -8 -4 -5 -9z"/>
<path d="M1340 1389 c-34 -6 -33 -6 13 -8 46 -1 59 3 35 11 -7 2 -29 1 -48 -3z"/>
<path d="M602 1550 c0 -14 2 -19 5 -12 2 6 2 18 0 25 -3 6 -5 1 -5 -13z"/>
<path d="M1149 1483 c2 -38 6 -62 8 -55 3 6 11 12 19 12 8 0 14 6 15 13 6 77
5 87 -7 87 -7 0 -18 2 -26 5 -10 4 -12 -9 -9 -62z m35 10 c-1 -16 -3 -32 -3
-36 -1 -5 -5 -5 -11 -2 -15 9 -12 65 3 65 8 0 12 -11 11 -27z"/>
<path d="M1028 1533 c7 -3 16 -2 19 1 4 3 -2 6 -13 5 -11 0 -14 -3 -6 -6z"/>
<path d="M1024 1452 c-9 -5 -8 -11 2 -20 12 -11 14 -9 14 8 0 22 0 23 -16 12z"/>
<path d="M2280 1554 c0 -8 5 -12 10 -9 6 4 8 11 5 16 -9 14 -15 11 -15 -7z"/>
<path d="M1530 1196 c0 -12 -3 -30 -6 -41 -4 -18 0 -20 36 -20 26 -1 40 3 40
12 0 7 -9 13 -20 13 -15 0 -20 7 -20 28 0 19 -5 29 -15 29 -8 0 -15 -9 -15
-21z"/>
<path d="M1428 1185 c4 -21 1 -25 -20 -25 -15 0 -25 -6 -25 -15 0 -11 12 -15
45 -15 41 0 44 1 37 23 -4 12 -7 30 -6 40 0 10 -8 17 -18 17 -14 0 -17 -6 -13
-25z"/>
<path d="M1390 1000 c0 -39 1 -40 36 -40 35 0 35 1 32 37 -3 34 -6 38 -35 40
-32 3 -33 2 -33 -37z m55 -1 c1 -14 -13 -29 -27 -29 -5 0 -8 7 -8 16 0 9 5 12
12 8 8 -5 9 -2 5 10 -5 12 -3 16 5 14 7 -3 13 -11 13 -19z"/>
<path d="M1529 1038 c0 -2 -1 -18 -2 -36 -2 -30 0 -32 30 -32 31 0 32 2 31 35
-1 31 -4 35 -30 35 -15 0 -28 -1 -29 -2z m46 -18 c-4 -6 -11 -8 -16 -5 -5 4
-9 -1 -9 -9 0 -8 8 -17 18 -19 13 -4 11 -5 -5 -6 -18 -1 -23 4 -23 24 0 19 5
25 21 25 11 0 17 -5 14 -10z"/>
<path d="M1397 923 c-4 -3 -7 -21 -7 -40 0 -31 2 -33 35 -33 34 0 35 1 35 40
0 37 -2 40 -28 40 -16 0 -32 -3 -35 -7z m47 -18 c7 -20 -3 -45 -19 -45 -17 0
-26 35 -12 49 15 15 24 14 31 -4z"/>
<path d="M1527 917 c-2 -6 -4 -23 -3 -37 1 -21 7 -26 34 -28 31 -3 32 -2 32
37 0 39 -2 41 -29 41 -16 0 -31 -6 -34 -13z m44 -10 c-1 -4 -1 -16 -1 -27 0
-13 -5 -18 -15 -14 -24 10 -17 60 8 51 5 -1 8 -6 8 -10z"/>
<path d="M1385 750 c-3 -6 5 -10 18 -10 20 0 24 -4 20 -20 -4 -14 0 -20 11
-20 9 0 16 8 16 20 0 11 5 20 10 20 6 0 10 5 10 10 0 6 -18 10 -39 10 -22 0
-43 -4 -46 -10z"/>
<path d="M1524 744 c3 -9 6 -22 6 -30 0 -8 7 -14 15 -14 8 0 15 9 15 20 0 13
7 20 20 20 11 0 20 5 20 10 0 6 -18 10 -41 10 -33 0 -40 -3 -35 -16z"/>
<path d="M810 630 c0 -6 38 -10 95 -10 57 0 95 4 95 10 0 6 -38 10 -95 10 -57
0 -95 -4 -95 -10z"/>
<path d="M1980 620 c0 -6 39 -10 106 -10 58 0 103 4 100 9 -8 13 -206 14 -206
1z"/>
<path d="M481 747 c-6 -15 -14 -40 -17 -55 -6 -26 -6 -26 9 -7 13 16 17 17 31
6 20 -17 21 -2 1 49 l-13 35 -11 -28z m19 -17 c0 -5 -5 -10 -11 -10 -5 0 -7 5
-4 10 3 6 8 10 11 10 2 0 4 -4 4 -10z"/>
<path d="M583 725 c0 -27 2 -38 4 -22 2 15 2 37 0 50 -2 12 -4 0 -4 -28z"/>
<path d="M608 743 c-3 -4 -5 -20 -6 -35 -1 -22 3 -28 19 -28 17 0 20 5 17 32
-3 30 -21 49 -30 31z m22 -43 c0 -5 -4 -10 -10 -10 -5 0 -10 5 -10 10 0 6 5
10 10 10 6 0 10 -4 10 -10z"/>
<path d="M531 713 c-1 -27 3 -33 19 -33 16 0 20 6 19 33 0 17 -3 25 -6 17 -14
-43 -16 -44 -23 -15 l-8 30 -1 -32z"/>
<path d="M498 623 c6 -2 12 -20 12 -39 0 -19 5 -34 10 -34 6 0 8 11 4 25 -4
15 -1 32 6 40 11 13 8 15 -16 14 -16 0 -23 -3 -16 -6z"/>
<path d="M560 615 c-10 -12 -10 -15 0 -15 8 0 10 -8 6 -25 -4 -14 -2 -25 4
-25 5 0 10 18 10 40 0 44 -2 47 -20 25z"/>
<path d="M352 755 c0 -16 2 -22 5 -12 2 9 2 23 0 30 -3 6 -5 -1 -5 -18z"/>
<path d="M2635 580 c3 -5 8 -10 11 -10 2 0 4 5 4 10 0 6 -5 10 -11 10 -5 0 -7
-4 -4 -10z"/>
<path d="M2630 551 c0 -5 5 -13 10 -16 6 -3 10 -2 10 4 0 5 -4 13 -10 16 -5 3
-10 2 -10 -4z"/>
<path d="M2097 356 c-3 -7 -3 -31 0 -53 4 -32 9 -39 29 -41 13 -1 24 3 24 8 0
6 -9 10 -19 10 -15 0 -19 7 -18 33 2 24 6 32 20 31 9 -1 17 4 17 12 0 18 -46
18 -53 0z"/>
<path d="M1907 183 c-15 -15 -5 -23 28 -23 24 0 35 5 35 15 0 15 -50 22 -63 8z"/>
<path d="M20 1658 c0 -16 5 -28 10 -28 13 0 13 20 0 40 -8 12 -10 9 -10 -12z"/>
<path d="M680 1670 c0 -5 5 -10 11 -10 5 0 7 5 4 10 -3 6 -8 10 -11 10 -2 0
-4 -4 -4 -10z"/>
<path d="M710 1670 c0 -6 71 -10 205 -10 119 0 205 4 205 9 0 6 -87 10 -205
11 -135 0 -205 -3 -205 -10z"/>
<path d="M466 1630 c-19 -6 -19 -7 2 -12 12 -4 24 -2 27 2 8 13 -8 18 -29 10z"/>
<path d="M20 1600 c0 -11 5 -20 10 -20 6 0 10 9 10 20 0 11 -4 20 -10 20 -5 0
-10 -9 -10 -20z"/>
<path d="M842 1550 c0 -14 2 -19 5 -12 2 6 2 18 0 25 -3 6 -5 1 -5 -13z"/>
<path d="M376 1484 c-12 -31 -7 -164 7 -164 9 0 12 25 12 90 0 86 -6 109 -19
74z"/>
<path d="M2017 1353 c-11 -10 -8 -53 3 -53 6 0 10 14 10 30 0 31 -2 35 -13 23z"/>
<path d="M140 1275 c0 -33 2 -35 35 -35 24 0 35 -5 35 -15 0 -11 -12 -15 -50
-15 -38 0 -50 4 -50 15 0 8 -5 15 -11 15 -6 0 -9 -10 -7 -22 3 -21 8 -23 56
-21 l52 1 0 -116 c1 -64 1 -183 0 -264 -1 -97 3 -148 10 -148 7 0 10 93 10
285 l0 285 28 1 c15 1 44 1 65 0 24 -2 37 2 37 9 0 10 -23 11 -95 6 -94 -7
-95 -7 -96 16 -1 13 -1 26 0 31 0 4 -3 7 -9 7 -5 0 -10 -16 -10 -35z"/>
<path d="M372 1304 c4 -3 2 -19 -2 -35 -5 -17 -5 -29 1 -29 5 0 9 -9 9 -20 0
-21 16 -28 22 -8 3 7 29 10 76 9 71 -2 72 -2 72 23 0 26 -23 36 -35 16 -3 -5
-33 -10 -66 -10 l-60 0 5 30 c3 23 0 30 -12 30 -8 0 -13 -3 -10 -6z"/>
<path d="M740 1240 c0 -5 5 -10 10 -10 6 0 10 5 10 10 0 6 -4 10 -10 10 -5 0
-10 -4 -10 -10z"/>
<path d="M2403 725 c0 -27 2 -38 4 -22 2 15 2 37 0 50 -2 12 -4 0 -4 -28z"/>
<path d="M2296 736 c-3 -13 -9 -32 -13 -43 -6 -16 -5 -16 10 -4 14 11 20 11
34 0 15 -12 16 -12 9 6 -5 11 -11 30 -13 43 -7 29 -19 28 -27 -2z"/>
<path d="M2428 743 c-3 -4 -5 -20 -6 -35 -1 -22 3 -28 19 -28 17 0 20 5 17 32
-3 30 -21 49 -30 31z m22 -37 c0 -3 -4 -8 -10 -11 -5 -3 -10 -1 -10 4 0 6 5
11 10 11 6 0 10 -2 10 -4z"/>
<path d="M2344 724 c3 -9 6 -22 6 -31 0 -8 7 -13 17 -11 17 3 31 58 14 58 -5
0 -12 -12 -14 -27 l-4 -28 -2 28 c0 15 -6 27 -12 27 -6 0 -8 -7 -5 -16z"/>
<path d="M2376 633 c-4 -4 -24 -7 -44 -6 -20 1 -29 -1 -19 -4 15 -4 18 -12 15
-39 -2 -19 0 -34 4 -34 4 0 8 15 8 33 0 31 3 34 30 34 30 0 39 -10 20 -22 -5
-3 -15 -15 -20 -26 -9 -17 -7 -19 17 -18 18 1 22 3 10 6 -17 4 -17 6 -2 23 24
27 6 77 -19 53z"/>
</g>

<rect  style="stroke:#1a1a1a;stroke-width:1.4;stroke-miterlimit:4;stroke-dasharray:none;stroke-opacity:1"
       id="t1"
       fill="red"
       y="136"
       x="39"
       height="80"
       width="40" />
<text
       style="font-style:normal;font-weight:normal;font-size:24px;line-height:125%;font-family:Verdana;letter-spacing:0px;word-spacing:0px;fill-opacity:1;fill-rule:evenodd;stroke:none"
       xml:space="preserve"
       id="t1t"
       y="185"
       x="45"> T1
</text>

<rect  style="stroke:#1a1a1a;stroke-width:1.4;stroke-miterlimit:4;stroke-dasharray:none;stroke-opacity:1"
       id="t2"
       fill="red"
       y="148"
       x="222"
       height="60"
       width="39" />

<text
       style="font-style:normal;font-weight:normal;font-size:24px;line-height:125%;font-family:Verdana;letter-spacing:0px;word-spacing:0px;fill-opacity:1;fill-rule:evenodd;stroke:none"
       xml:space="preserve"
       id="t2t"
       y="187"
       x="227"> T2
</text>


</svg>
