<?xml version="1.0" standalone="no"?>
<!DOCTYPE svg PUBLIC "-//W3C//DTD SVG 20010904//EN"
 "http://www.w3.org/TR/2001/REC-SVG-20010904/DTD/svg10.dtd">
<svg version="1.0" xmlns="http://www.w3.org/2000/svg"
 width="300.000000pt" height="210.000000pt" viewBox="0 0 300.000000 210.000000"
 preserveAspectRatio="xMidYMid meet">
<metadata>
Created by potrace 1.10, written by Peter Selinger 2001-2011
</metadata>
<g transform="translate(0.000000,210.000000) scale(0.100000,-0.100000)"
fill="#000000" stroke="none">
<path d="M1294 2010 l7 -50 -41 0 -40 0 0 -53 0 -53 -418 -3 -418 -2 1 58 0
58 -127 2 -128 2 0 -154 c0 -144 -1 -155 -18 -155 -34 0 -52 -32 -52 -92 0
-45 4 -59 24 -77 14 -13 29 -20 35 -16 8 4 11 -43 11 -154 l0 -161 200 0 200
1 0 80 c0 49 -4 79 -11 79 -6 0 -9 -16 -8 -37 1 -21 2 -53 1 -70 l-2 -33 -60
0 c-33 0 -60 4 -60 10 0 6 -7 10 -15 10 -8 0 -14 -5 -12 -11 2 -11 -187 -14
-204 -3 -5 2 -6 31 -4 64 3 33 1 60 -4 60 -10 0 -9 19 1 35 3 6 4 38 2 71 l-4
61 50 -5 c41 -4 50 -2 50 11 0 13 -11 16 -59 16 -68 -1 -97 6 -105 26 -4 10 1
15 15 15 11 0 18 -4 14 -9 -3 -5 -1 -13 5 -16 6 -4 9 -1 8 7 -2 8 7 13 25 14
20 1 26 -3 23 -12 -3 -8 -1 -14 4 -14 6 0 10 5 10 10 0 6 7 10 15 10 8 0 15 6
15 14 0 8 6 17 13 19 10 4 10 6 0 6 -7 1 -13 8 -13 16 0 8 -5 15 -11 15 -7 0
-18 8 -26 18 -8 9 -12 12 -9 6 8 -16 -39 -35 -52 -22 -6 6 -12 6 -16 0 -3 -6
-2 -13 4 -17 17 -11 11 -35 -9 -35 -16 0 -19 6 -16 32 3 17 9 36 14 41 6 6 43
12 83 13 40 2 79 3 86 3 7 1 11 5 8 9 -3 5 -31 10 -63 11 -32 1 -59 4 -61 6
-7 7 -5 172 2 183 4 7 2 12 -3 12 -6 0 -9 10 -7 23 3 12 5 31 5 42 1 19 8 20
106 20 l104 1 3 -156 c3 -180 0 -233 -13 -225 -5 4 -9 2 -9 -4 0 -5 5 -11 11
-13 6 -2 11 -26 11 -56 -1 -41 3 -52 15 -52 11 0 14 8 11 30 l-5 30 64 0 63 0
1 -47 c1 -27 0 -60 -1 -75 -1 -14 3 -29 9 -33 8 -4 11 20 11 74 l0 80 133 3
c72 2 171 2 220 0 l87 -3 0 -88 0 -87 113 3 114 2 30 -32 c33 -33 36 -48 34
-149 l-1 -58 -35 0 -35 0 0 -51 c0 -49 -1 -51 -23 -45 -43 10 -63 -27 -62
-115 1 -85 22 -124 66 -117 22 3 23 0 20 -45 l-3 -47 36 0 35 0 0 -136 c0 -74
3 -139 6 -145 4 -5 -39 -9 -109 -9 -75 0 -116 4 -116 11 0 5 -5 7 -10 4 -5 -3
-10 -1 -10 4 0 6 5 11 10 11 6 0 10 18 10 40 l0 40 -47 1 c-27 1 -82 2 -123 3
l-75 2 3 -203 3 -204 232 1 c228 1 232 1 230 -20 -2 -15 3 -20 22 -20 14 0 25
-4 25 -8 0 -5 7 -9 15 -9 8 0 15 4 15 9 0 4 18 8 40 8 22 0 40 -3 40 -7 0 -5
11 -9 25 -9 14 -1 22 2 19 7 -3 5 15 9 40 9 25 0 46 -4 46 -10 0 -5 7 -10 15
-10 8 0 15 5 15 10 0 6 18 10 40 10 22 0 40 -4 40 -10 0 -5 7 -10 15 -10 8 0
15 5 15 10 0 6 11 10 25 10 14 0 24 3 24 8 -5 31 1 32 231 32 l230 0 0 205 0
205 -127 0 -128 0 0 -57 0 -57 -105 0 -105 -1 2 78 1 77 -111 2 c-140 2 -140
2 -211 -7 -35 -5 -57 -4 -54 1 4 5 -9 9 -27 10 -20 0 -31 -4 -28 -9 4 -6 -1
-8 -11 -4 -10 4 -23 7 -29 7 -7 0 -6 4 3 10 10 6 14 25 13 60 l-1 50 34 0 c24
0 34 5 34 15 0 12 -14 15 -70 15 l-71 0 5 50 5 50 -39 -2 c-22 -1 -43 2 -47 6
-8 8 -7 166 1 174 3 3 24 5 46 4 l41 -2 -6 50 -6 50 71 0 c56 0 70 3 70 15 0
10 -11 15 -35 15 l-35 0 1 78 c1 99 11 112 90 112 l59 0 -1 -95 c-1 -87 -2
-95 -20 -95 -10 0 -19 -7 -19 -15 0 -10 10 -15 30 -15 29 0 30 -1 30 -50 0
-38 -4 -50 -15 -50 -11 0 -15 11 -15 39 0 22 -4 43 -10 46 -7 4 -10 -56 -10
-172 0 -98 -3 -188 -6 -200 -5 -19 -2 -23 15 -23 19 0 21 -6 21 -55 0 -42 3
-55 15 -55 8 0 15 9 15 21 0 11 -4 17 -10 14 -6 -4 -10 5 -10 19 0 14 5 26 10
26 6 0 10 9 10 19 0 11 6 22 13 24 9 4 9 8 -1 15 -10 7 -13 30 -10 91 l4 81
-28 0 c-21 0 -28 5 -28 20 0 15 7 20 28 20 l27 0 -3 85 c-2 56 0 85 7 85 6 0
11 7 11 15 0 8 -4 15 -10 15 -5 0 -10 11 -10 25 0 14 -4 25 -10 25 -5 0 -10 9
-10 20 0 11 5 20 10 20 6 0 10 21 10 48 l0 47 39 1 39 1 -2 -46 c-1 -32 3 -45
12 -44 7 2 12 -7 12 -22 0 -14 -6 -25 -14 -25 -9 0 -12 -8 -8 -25 2 -15 0 -25
-7 -25 -6 0 -11 -7 -11 -15 0 -8 5 -15 11 -15 9 0 10 -24 5 -85 l-7 -85 30 0
c40 0 42 -27 4 -32 l-28 -3 3 -81 c3 -54 0 -84 -8 -89 -8 -5 -8 -10 0 -20 7
-8 9 -19 5 -25 -3 -5 1 -13 9 -16 19 -7 21 -44 3 -44 -7 0 -13 -9 -13 -20 0
-13 7 -20 18 -20 15 0 18 9 18 60 0 53 2 60 20 60 20 0 26 11 13 24 -4 3 -7
85 -8 181 0 95 -4 177 -8 181 -4 4 -7 -11 -7 -34 0 -31 -4 -42 -15 -42 -11 0
-15 12 -15 45 0 43 1 45 30 45 20 0 30 5 30 15 0 9 -9 15 -22 15 -22 0 -23 3
-23 95 l0 95 65 0 c36 0 70 -4 76 -8 5 -4 11 -46 11 -94 l1 -88 -34 0 c-23 0
-34 -5 -34 -15 0 -11 16 -15 68 -17 l67 -3 -3 -47 -3 -48 40 0 41 0 0 -90 c0
-97 0 -96 -58 -91 -20 2 -23 -2 -21 -26 6 -72 5 -73 -66 -68 -52 3 -65 1 -65
-11 0 -9 11 -14 36 -14 l36 0 -4 -57 c-2 -38 1 -58 9 -60 9 -3 12 13 11 59
l-2 63 32 -3 c34 -4 36 -1 32 66 -1 29 1 32 28 32 45 0 85 59 50 73 -9 4 -10
8 -2 14 6 4 11 29 13 54 2 50 -23 84 -63 84 -18 0 -21 7 -24 48 -3 45 -5 47
-33 47 l-29 0 0 93 c0 89 1 94 28 120 27 26 32 27 145 28 l117 0 0 90 0 89
215 0 215 0 0 -40 c0 -53 18 -51 22 2 2 36 6 43 23 42 11 -1 38 -2 60 -2 41
-2 41 -2 37 -37 -3 -26 0 -35 10 -35 11 0 15 12 15 48 l-1 48 -70 -2 c-131 -4
-301 -5 -329 -1 -15 3 -29 2 -31 -2 -2 -3 -68 -4 -146 -1 -78 3 -144 2 -147
-2 -2 -5 -10 -8 -16 -8 -9 0 -9 2 1 8 7 5 -15 6 -48 4 -51 -4 -60 -2 -60 12 0
13 -3 14 -13 5 -9 -9 -12 -30 -9 -66 4 -48 2 -53 -14 -47 -18 5 -18 5 -1 -9
21 -17 24 -62 3 -54 -8 3 -22 -3 -31 -13 -11 -12 -35 -21 -64 -23 -44 -4 -44
-4 7 -3 31 1 51 -3 49 -9 -4 -11 -40 -13 -257 -16 l-146 -2 -30 30 c-26 27
-29 37 -31 96 l-1 67 68 0 c44 0 70 -4 72 -12 3 -7 10 -8 17 -3 11 6 10 10 -3
17 -9 5 -16 18 -16 28 0 11 -4 20 -10 20 -5 0 -10 -9 -10 -20 0 -18 -7 -20
-60 -20 -62 0 -68 6 -50 40 12 23 3 29 -30 19 -24 -7 -24 -7 -2 -8 19 -1 20
-4 11 -18 -10 -17 -42 -18 -422 -19 -438 0 -438 0 -436 48 1 23 1 23 9 -2 8
-24 8 -24 9 7 l1 32 412 0 c279 0 416 -3 425 -11 10 -8 13 -7 13 3 1 8 2 66 4
130 2 64 7 122 11 129 6 9 4 11 -4 6 -9 -6 -11 2 -9 30 l3 39 258 2 257 3 0
-155 0 -155 -57 -2 -58 -1 58 -6 c31 -3 56 -8 55 -11 -1 -3 3 -14 10 -25 11
-19 11 -19 12 3 0 18 5 22 34 22 19 0 37 6 40 13 5 10 7 10 12 0 4 -9 34 -13
99 -13 65 0 95 4 99 13 5 10 7 10 12 0 7 -16 180 -18 189 -3 4 7 11 8 18 1 7
-5 55 -11 109 -13 53 -1 91 0 85 4 -6 4 -8 10 -4 14 3 4 12 2 19 -3 7 -6 41
-13 76 -16 61 -5 62 -5 58 19 -4 22 -2 24 37 24 23 0 65 -3 94 -6 47 -6 51 -8
40 -25 -7 -11 -17 -19 -23 -19 -13 0 -23 -29 -17 -47 3 -7 9 -13 15 -13 6 0
17 -8 24 -17 12 -16 12 -15 7 7 -5 24 -5 24 10 5 8 -11 19 -17 23 -12 4 4 1 7
-7 8 -8 0 -5 4 6 8 25 10 47 3 39 -13 -3 -6 2 -2 11 9 14 18 14 20 1 23 -19 4
-21 31 -3 33 6 1 -1 4 -18 8 l-30 7 33 5 c23 4 35 2 38 -8 13 -44 18 -47 22
-15 4 37 -19 72 -48 72 -15 0 -17 9 -13 78 3 69 2 75 -11 58 -11 -13 -14 -36
-11 -78 l4 -59 -112 4 -112 5 0 138 0 139 113 2 112 3 -4 -65 c-4 -50 -2 -65
9 -65 10 0 13 19 14 75 l1 75 -135 0 -135 0 0 -57 0 -58 -368 2 c-202 1 -386
2 -409 2 l-43 1 0 50 0 50 -46 0 -46 0 7 38 c4 20 7 42 8 47 1 6 -75 11 -207
13 l-209 2 7 -50z m93 28 c5 13 24 17 22 5 -5 -33 2 -44 29 -41 19 2 28 9 30
25 3 20 6 21 24 12 16 -9 19 -8 13 2 -6 9 -2 10 16 6 13 -4 30 -7 37 -7 9 0
11 -7 7 -21 -5 -16 -3 -20 6 -17 8 3 13 15 11 26 -2 12 2 22 7 22 6 0 11 -4
11 -8 0 -5 7 -9 15 -9 8 0 15 4 15 9 0 4 5 8 10 8 6 0 10 -11 10 -25 0 -14 5
-25 11 -25 6 0 8 9 4 20 -4 13 -2 20 7 20 10 0 12 -11 10 -40 l-4 -40 -184 0
c-177 0 -184 1 -184 20 0 11 6 20 14 20 8 0 16 7 20 15 3 8 1 15 -4 15 -6 0
-10 -4 -10 -10 0 -5 -4 -10 -10 -10 -5 0 -10 6 -10 14 0 18 40 26 59 11 10 -7
15 -6 18 3z m73 -7 c0 -11 -26 -22 -34 -14 -12 12 -5 23 14 23 11 0 20 -4 20
-9z m-452 -213 c8 -7 12 -7 12 1 0 7 33 11 100 11 l101 0 -3 -102 -3 -103
-202 -2 -203 -3 0 104 c0 91 2 105 17 108 34 6 168 -4 181 -14z m973 3 c1 -13
2 -13 6 1 4 14 18 16 103 15 69 0 97 -4 91 -11 -4 -6 -8 -52 -7 -103 l1 -91
-197 0 -198 1 0 101 0 102 100 0 c83 0 100 -2 101 -15z m404 -1 c-17 -19 -22
-170 -5 -170 6 0 10 33 10 80 0 47 4 80 10 80 6 0 10 6 10 13 0 9 26 12 95 12
52 0 95 -3 95 -7 0 -5 0 -50 0 -102 l0 -94 -205 0 -205 0 0 89 c0 51 4 89 10
89 5 0 7 6 4 14 -5 12 11 14 95 13 93 -1 100 -2 86 -17z m-1807 -92 l-3 -103
-93 0 -94 0 -2 103 -2 102 99 0 98 0 -3 -102z m216 0 l-2 -103 -98 0 -99 0 -2
90 c-1 50 0 96 2 103 3 8 33 12 102 12 l98 0 -1 -102z m2096 -98 c0 -5 -15
-10 -33 -10 -18 0 -39 -6 -46 -12 -11 -10 -10 -8 0 10 10 15 23 22 46 22 18 0
33 -4 33 -10z m-2696 -46 c28 -11 18 -34 -14 -34 -30 0 -43 23 -17 33 6 3 13
6 14 6 1 1 8 -2 17 -5z m2646 -13 c0 -14 -7 -18 -30 -17 -17 1 -30 5 -30 9 0
4 0 12 0 17 0 6 14 10 30 10 23 0 30 -5 30 -19z m-1727 -58 c-7 -2 -19 -2 -25
0 -7 3 -2 5 12 5 14 0 19 -2 13 -5z m747 -13 c0 -5 -18 -10 -40 -10 -22 0 -40
5 -40 10 0 6 18 10 40 10 22 0 40 -4 40 -10z m70 -5 c0 -11 11 -15 40 -15 22
0 40 -4 40 -10 0 -5 -14 -10 -31 -10 l-31 0 4 -55 3 -55 -73 0 c-90 0 -102 10
-102 79 l0 51 45 0 c33 0 45 4 45 15 0 10 10 15 30 15 20 0 30 -5 30 -15z m80
5 c0 -5 -16 -10 -35 -10 -19 0 -35 5 -35 10 0 6 16 10 35 10 19 0 35 -4 35
-10z m-955 -9 c-6 -5 -21 -11 -35 -14 -18 -3 -15 -5 13 -6 27 -1 37 3 37 14 0
9 9 15 24 15 13 0 26 -7 30 -15 3 -8 13 -15 23 -15 15 0 18 -8 16 -50 -2 -46
0 -49 17 -40 13 7 20 6 22 -2 3 -7 5 10 5 37 0 32 -2 38 -4 17 -5 -40 -26 -38
-28 2 0 20 5 31 20 36 16 7 13 9 -17 9 -20 1 -40 6 -43 11 -4 6 12 10 39 10
l46 0 0 -70 c0 -64 -2 -71 -22 -78 -19 -6 -140 -8 -195 -3 -8 1 -13 15 -13 37
0 28 4 35 17 32 23 -4 28 -28 6 -29 -17 -1 -17 -1 0 -6 11 -3 16 -11 13 -19
-3 -8 -1 -14 4 -14 6 0 10 25 10 55 0 51 -2 55 -22 54 -17 -1 -19 -2 -5 -6 23
-6 22 -23 -3 -23 -16 0 -20 7 -20 35 0 34 1 35 37 35 23 0 33 -4 28 -9z m946
-48 c0 -5 2 -27 2 -50 2 -37 -1 -42 -17 -39 -25 4 -33 26 -10 26 16 0 16 1 -2
14 -18 14 -18 15 6 25 24 9 24 10 3 10 -13 1 -23 6 -23 11 0 11 40 14 41 3z
m-261 -77 c0 -2 -8 -10 -17 -17 -16 -13 -17 -12 -4 4 13 16 21 21 21 13z m21
-50 c-24 -24 -33 -28 -43 -18 -18 18 39 77 59 60 12 -9 9 -17 -16 -42z m-487
6 c22 -24 24 -31 13 -40 -11 -9 -20 -5 -40 18 -47 53 -23 73 27 22z m298 -370
c-16 -5 -15 -29 1 -35 7 -3 5 -6 -6 -6 -13 -1 -17 6 -15 28 1 21 6 27 17 23
10 -4 11 -7 3 -10z m-122 -7 c0 -8 -2 -15 -4 -15 -2 0 -6 7 -10 15 -3 8 -1 15
4 15 6 0 10 -7 10 -15z m-1 -32 c2 -2 -5 -3 -17 -3 -14 0 -22 6 -22 16 0 14 3
15 18 3 9 -7 19 -15 21 -16z m-1 -87 c2 -10 -1 -23 -7 -29 -16 -16 -34 6 -26
33 8 24 28 22 33 -4z m132 -1 c0 -16 -6 -25 -15 -25 -15 0 -21 31 -8 43 13 14
23 6 23 -18z m0 -85 c0 -38 -4 -50 -15 -50 -11 0 -15 12 -15 50 0 38 4 50 15
50 11 0 15 -12 15 -50z m-132 -5 c-1 -34 -5 -45 -17 -45 -12 0 -16 11 -16 45
0 36 3 45 18 45 14 0 17 -8 15 -45z m58 -215 c9 0 13 3 11 8 -3 4 19 5 49 4
46 -3 54 -7 54 -24 0 -16 -5 -19 -25 -16 -23 5 -25 2 -27 -31 -1 -32 -2 -30
-8 14 l-7 50 -1 -47 c-2 -35 -6 -48 -17 -48 -8 0 -15 -4 -15 -10 0 -5 11 -10
25 -10 14 0 25 4 25 8 0 5 8 19 18 30 l19 21 13 -24 c7 -14 17 -25 22 -25 5 0
6 -9 3 -20 -5 -16 -2 -20 19 -20 29 0 36 19 9 21 -17 1 -17 2 0 6 9 2 18 14
18 26 1 12 3 32 4 45 1 12 -3 26 -9 29 -17 11 -36 12 -36 2 0 -5 -4 -9 -10 -9
-5 0 -10 7 -10 15 0 11 12 15 45 15 l45 0 -3 -95 c-2 -61 1 -95 7 -96 6 0 5
-3 -1 -6 -7 -2 -13 -9 -13 -14 0 -6 5 -7 10 -4 6 3 10 1 10 -4 0 -6 -4 -11 -8
-11 -5 0 -8 -48 -8 -107 l1 -108 -32 3 c-22 2 -33 -1 -33 -10 0 -8 -12 -13
-32 -12 -18 1 -32 6 -31 12 1 6 -22 12 -52 14 -59 3 -76 -8 -22 -15 31 -4 31
-4 -5 -5 -21 -1 -38 3 -38 8 0 6 -14 10 -31 10 -17 0 -28 -4 -24 -10 4 -6 -8
-10 -29 -10 -20 0 -36 5 -36 10 0 6 -15 10 -32 10 l-33 0 3 105 c3 83 1 105
-10 105 -10 0 -9 3 2 10 13 9 13 11 0 20 -9 6 -10 10 -3 10 8 0 11 18 8 60 -2
33 -2 60 0 60 2 0 10 -3 19 -6 19 -7 22 -70 4 -77 -7 -3 8 -6 35 -6 40 -1 47
-4 47 -21 0 -11 5 -20 10 -20 6 0 10 4 10 9 0 5 3 16 6 25 5 13 -1 16 -25 16
-17 0 -31 5 -31 12 0 18 41 58 61 58 9 0 19 10 21 23 4 21 2 22 -45 18 -34 -2
-47 0 -43 8 4 7 -1 11 -13 11 -12 0 -21 -5 -21 -11 0 -5 4 -8 9 -4 16 9 22
-12 7 -24 -11 -10 -17 -8 -25 6 -6 10 -11 12 -11 6 0 -7 -4 -13 -10 -13 -5 0
-9 11 -8 25 3 28 1 27 126 25 53 -1 72 2 73 12 0 10 2 10 6 1 2 -7 11 -13 19
-13z m180 -35 c1 -8 -4 -11 -12 -8 -15 6 -18 16 -7 26 8 9 16 1 19 -18z m-746
-62 c0 -52 -1 -53 -29 -53 -16 0 -43 3 -60 6 -29 6 -31 9 -31 50 0 47 3 49 78
49 l42 1 0 -53z m445 46 c10 -15 -34 -54 -47 -41 -7 7 -4 17 9 30 21 24 29 26
38 11z m281 -3 c14 -11 16 -17 7 -26 -14 -15 -33 -5 -33 16 0 8 -4 12 -10 9
-5 -3 -10 -1 -10 4 0 15 23 14 46 -3z m514 -41 l0 -55 -62 0 -63 0 -2 55 -2
55 65 0 64 0 0 -55z m-1160 31 c0 -16 -18 -31 -27 -22 -8 8 5 36 17 36 5 0 10
-6 10 -14z m1020 -1 c0 -8 -7 -15 -15 -15 -8 0 -15 6 -15 13 0 8 -4 7 -10 -3
-15 -24 -12 -29 15 -24 22 4 25 1 25 -26 0 -30 -2 -31 -37 -28 -35 3 -38 5
-38 35 0 17 4 29 9 26 4 -3 5 4 1 16 -6 19 -2 21 29 21 25 0 36 -4 36 -15z
m-1063 -16 c-5 -18 -2 -21 23 -17 24 4 27 2 19 -9 -6 -7 -9 -20 -5 -28 4 -11
-2 -15 -25 -15 -24 0 -30 4 -25 16 4 10 2 13 -6 8 -8 -5 -9 0 -5 17 4 13 7 30
7 37 0 6 5 12 11 12 7 0 9 -9 6 -21z m373 -39 c0 -5 -4 -10 -10 -10 -5 0 -10
5 -10 10 0 6 5 10 10 10 6 0 10 -4 10 -10z m-163 -41 l78 -2 0 -41 0 -42 -192
1 c-148 0 -193 3 -193 13 0 6 -6 12 -12 13 -10 0 -10 2 0 6 6 2 12 16 12 30
l0 24 109 -4 c70 -2 108 0 104 6 -3 6 -1 7 4 4 6 -4 46 -8 90 -8z m841 2 l92
-1 0 -35 c0 -21 5 -35 13 -35 9 0 8 -3 -2 -9 -7 -5 -21 -7 -30 -6 -9 2 -95 4
-191 4 l-175 1 0 37 0 38 80 5 c44 3 89 4 100 3 11 -1 62 -2 113 -2z m-1175
-8 c-7 -2 -21 -2 -30 0 -10 3 -4 5 12 5 17 0 24 -2 18 -5z m1327 -7 c0 -41
-31 -63 -44 -31 -4 10 1 15 17 16 l22 0 -22 9 c-30 12 -29 20 2 20 15 0 25 -6
25 -14z m-1325 -41 c0 -21 -5 -31 -17 -33 -14 -3 -18 3 -18 23 0 14 4 24 9 20
5 -3 12 -1 15 4 4 5 -2 12 -11 15 -15 4 -15 4 2 3 14 -2 19 -10 20 -32z m1322
-21 c-3 -3 -12 -4 -19 -1 -8 3 -5 6 6 6 11 1 17 -2 13 -5z m-1241 -98 l1 -75
-58 1 -59 1 0 74 0 73 58 0 57 0 1 -74z m104 2 l0 -73 -45 0 -45 0 0 73 0 72
45 0 45 0 0 -72z m110 -3 l0 -75 -49 0 -50 0 0 75 0 75 49 0 50 0 0 -75z m114
36 c1 -18 -5 -36 -11 -38 -7 -3 -12 -17 -12 -32 2 -23 2 -24 6 -3 6 32 23 27
23 -8 0 -30 -1 -30 -52 -30 l-53 0 0 75 -1 76 50 -3 c48 -3 49 -3 50 -37z
m487 27 c0 -10 2 -10 6 0 3 8 31 12 91 12 l87 0 0 -75 0 -75 -100 0 -100 0 0
75 c0 41 3 75 7 75 5 0 8 -6 9 -12z m299 -63 l0 -75 -50 0 -50 0 0 75 0 75 50
0 50 0 0 -75z m130 0 l0 -75 -60 0 -60 0 0 75 0 75 60 0 60 0 0 -75z"/>
<path d="M1530 2016 c0 -9 5 -16 10 -16 6 0 10 4 10 9 0 6 -4 13 -10 16 -5 3
-10 -1 -10 -9z"/>
<path d="M945 1739 c-5 -8 -1 -9 15 -4 24 8 22 -2 -8 -37 -14 -17 -13 -18 14
-17 17 1 22 3 12 6 -16 4 -16 6 -3 20 9 8 14 20 12 27 -5 16 -34 19 -42 5z"/>
<path d="M1026 1733 c-2 -10 -7 -29 -11 -43 -6 -24 -6 -24 10 -5 13 17 17 18
25 5 14 -22 18 -9 8 28 -9 35 -24 42 -32 15z m24 -13 c0 -5 -5 -10 -11 -10 -5
0 -7 5 -4 10 3 6 8 10 11 10 2 0 4 -4 4 -10z"/>
<path d="M1894 1749 c-4 -8 0 -9 15 -4 27 8 27 -6 1 -30 -11 -10 -18 -21 -15
-24 10 -10 45 -11 45 -1 0 6 -5 10 -11 10 -8 0 -8 5 1 15 7 8 10 22 6 30 -6
18 -32 20 -42 4z"/>
<path d="M1971 1718 c1 -40 2 -41 9 -13 6 23 8 25 9 8 1 -19 21 -45 21 -27 0
17 -25 74 -32 74 -4 0 -7 -19 -7 -42z"/>
<path d="M2015 1750 c-8 -13 5 -74 13 -65 9 9 9 75 0 75 -4 0 -10 -5 -13 -10z"/>
<path d="M2214 1748 c-5 -8 -2 -9 9 -5 22 8 23 -16 2 -33 -21 -18 -19 -25 10
-28 14 -1 25 3 25 8 0 6 -5 10 -10 10 -7 0 -7 7 0 20 6 11 8 25 5 30 -8 14
-32 13 -41 -2z"/>
<path d="M2291 1720 l1 -45 8 35 c5 20 5 39 -1 45 -5 5 -9 -8 -8 -35z"/>
<path d="M2323 1740 c3 -11 1 -18 -4 -14 -15 9 -10 -23 6 -36 13 -11 15 -7 15
29 0 23 -5 41 -11 41 -6 0 -9 -9 -6 -20z"/>
<path d="M2434 1749 c-4 -8 0 -9 15 -4 27 8 27 -6 1 -30 -11 -10 -18 -21 -15
-24 10 -10 45 -11 45 -1 0 6 -5 10 -11 10 -8 0 -8 5 1 15 7 8 10 22 6 30 -6
18 -32 20 -42 4z"/>
<path d="M2511 1718 c1 -24 3 -36 6 -27 2 10 13 19 24 22 28 7 21 41 -9 45
-20 3 -22 -1 -21 -40z m29 23 c0 -6 -4 -13 -10 -16 -5 -3 -10 1 -10 9 0 9 5
16 10 16 6 0 10 -4 10 -9z"/>
<path d="M414 1738 c-5 -8 -2 -9 9 -5 21 8 22 -2 1 -31 -15 -21 -14 -22 13
-21 18 1 22 3 10 6 -17 4 -17 6 -2 23 18 20 13 40 -10 40 -8 0 -17 -5 -21 -12z"/>
<path d="M484 1724 c-4 -14 -2 -30 4 -36 14 -14 44 -6 50 12 4 12 2 13 -9 3
-20 -20 -29 -16 -29 13 0 21 3 24 21 19 15 -5 19 -4 15 4 -13 21 -45 12 -52
-15z"/>
<path d="M620 1740 c0 -5 7 -7 15 -4 8 4 15 2 15 -4 0 -5 -7 -15 -15 -22 -22
-18 -18 -30 8 -30 16 0 18 3 8 9 -9 6 -10 11 -2 15 19 12 13 46 -9 46 -11 0
-20 -4 -20 -10z"/>
<path d="M690 1715 c0 -31 3 -35 25 -35 22 0 25 4 25 35 0 31 -3 35 -25 35
-22 0 -25 -4 -25 -35z m40 15 c0 -5 -4 -10 -9 -10 -6 0 -13 5 -16 10 -3 6 1
10 9 10 9 0 16 -4 16 -10z m0 -30 c0 -5 -7 -10 -15 -10 -8 0 -15 5 -15 10 0 6
7 10 15 10 8 0 15 -4 15 -10z"/>
<path d="M1793 1420 c1 -30 4 -35 24 -35 19 0 23 5 23 33 0 20 -4 31 -10 27
-6 -4 -7 -11 -4 -17 4 -6 0 -14 -7 -19 -10 -6 -16 -1 -21 19 -5 24 -6 23 -5
-8z"/>
<path d="M1420 820 c0 -5 5 -10 10 -10 6 0 10 5 10 10 0 6 -4 10 -10 10 -5 0
-10 -4 -10 -10z"/>
<path d="M1378 503 c7 -3 16 -2 19 1 4 3 -2 6 -13 5 -11 0 -14 -3 -6 -6z"/>
<path d="M1463 475 c0 -22 2 -30 4 -17 2 12 2 30 0 40 -3 9 -5 -1 -4 -23z"/>
<path d="M1437 413 c3 -8 12 -13 20 -11 19 4 12 22 -9 23 -10 1 -14 -4 -11
-12z"/>
<path d="M1597 361 c3 -12 11 -21 18 -21 19 0 11 34 -8 38 -11 2 -14 -2 -10
-17z"/>
<path d="M1599 285 c-3 -28 -4 -33 -11 -41 -5 -4 -8 -2 -8 5 0 7 -8 3 -18 -10
-30 -36 -88 -29 -130 16 -36 39 -53 40 -33 1 18 -32 69 -69 84 -59 6 4 26 6
44 4 27 -2 35 2 42 21 6 13 10 17 10 9 1 -16 44 36 47 56 1 7 -4 13 -12 13 -8
0 -15 -7 -15 -15z m-158 -52 c13 -16 12 -17 -3 -4 -17 13 -22 21 -14 21 2 0
10 -8 17 -17z"/>
<path d="M1314 269 c-13 -5 -7 -8 24 -8 23 -1 42 1 42 3 0 8 -48 12 -66 5z"/>
<path d="M1640 270 c0 -5 14 -10 30 -10 17 0 30 5 30 10 0 6 -13 10 -30 10
-16 0 -30 -4 -30 -10z"/>
<path d="M1378 83 c7 -3 16 -2 19 1 4 3 -2 6 -13 5 -11 0 -14 -3 -6 -6z"/>
<path d="M1830 191 c0 -61 16 -93 22 -44 5 42 -3 103 -13 103 -5 0 -9 -27 -9
-59z"/>
<path d="M1753 185 c0 -27 2 -38 4 -22 2 15 2 37 0 50 -2 12 -4 0 -4 -28z"/>
<path d="M1255 1922 c6 -6 60 -36 120 -67 61 -31 109 -61 108 -66 -2 -4 4 -6
11 -3 8 3 24 1 35 -6 12 -6 21 -7 21 -3 0 4 -63 40 -141 78 -151 75 -170 84
-154 67z"/>
<path d="M1273 1825 c1 -25 -2 -45 -7 -45 -5 0 -3 -7 4 -15 9 -11 9 -15 1 -15
-7 0 -9 -4 -6 -10 15 -25 25 -5 25 50 l0 60 89 -45 c67 -33 91 -50 94 -67 4
-20 4 -20 6 4 1 25 -7 32 -99 78 -55 27 -102 50 -104 50 -2 0 -3 -20 -3 -45z"/>
<path d="M2654 1818 c-5 -8 -2 -9 9 -5 21 8 22 -3 2 -29 -20 -26 -19 -34 5
-34 11 0 20 5 20 10 0 6 -5 10 -12 10 -9 0 -9 3 0 12 17 17 15 48 -2 48 -8 0
-18 -5 -22 -12z"/>
<path d="M2724 1805 c-8 -31 9 -52 40 -52 18 0 22 4 21 26 -2 36 -12 51 -35
51 -13 0 -22 -9 -26 -25z m46 -16 c0 -10 -7 -19 -15 -19 -15 0 -21 31 -9 43
11 10 24 -3 24 -24z"/>
<path d="M278 1813 c-13 -3 -18 -14 -18 -38 0 -27 4 -33 25 -37 14 -3 25 -1
25 3 0 5 -7 9 -15 9 -8 0 -15 5 -15 10 0 6 7 10 15 10 8 0 15 4 15 10 0 5 -7
7 -15 4 -8 -4 -15 -1 -15 4 0 6 8 12 18 14 9 2 13 6 7 9 -5 3 -18 4 -27 2z"/>
<path d="M190 1799 c0 -6 7 -9 15 -5 8 3 15 2 15 -3 0 -5 -7 -14 -15 -21 -20
-17 -19 -27 5 -33 11 -3 20 -1 20 4 0 5 -5 9 -12 9 -9 0 -9 3 0 12 19 19 15
48 -8 48 -11 0 -20 -5 -20 -11z"/>
<path d="M1510 1750 c0 -14 -3 -35 -6 -46 -5 -18 -2 -21 18 -17 17 3 33 -6 63
-37 22 -22 39 -44 37 -48 -2 -3 1 -8 7 -10 17 -6 13 34 -6 49 -9 8 -18 13 -20
12 -1 -2 -3 0 -4 5 -1 15 -43 52 -61 52 -10 0 -18 7 -18 15 0 9 6 12 18 9 13
-5 14 -4 3 4 -7 5 -17 16 -22 23 -6 10 -9 7 -9 -11z"/>
<path d="M1423 1688 c-17 -18 -19 -27 -12 -38 9 -12 10 -12 5 4 -5 13 -2 17 8
13 8 -3 17 1 20 10 4 10 14 13 27 10 13 -3 19 -1 16 6 -7 21 -42 18 -64 -5z"/>
<path d="M320 1650 c0 -5 7 -10 15 -10 8 0 15 5 15 10 0 6 -7 10 -15 10 -8 0
-15 -4 -15 -10z"/>
<path d="M1375 1640 c-3 -5 -32 -11 -63 -12 l-57 -2 53 -3 c37 -3 52 -8 52
-19 0 -20 16 -18 24 4 3 9 9 23 12 30 7 14 -12 17 -21 2z"/>
<path d="M1615 1540 c4 -6 1 -18 -6 -26 -16 -19 -4 -30 16 -14 20 16 19 50 -1
50 -8 0 -12 -5 -9 -10z"/>
<path d="M2907 1530 c-5 -20 -46 -27 -134 -22 -21 1 -33 -3 -33 -11 0 -9 -13
-11 -41 -9 -24 3 -46 -1 -52 -8 -9 -9 11 -10 94 -5 l107 7 -3 -133 c-2 -74 -4
-141 -4 -149 -1 -13 -19 -14 -111 -12 -65 2 -108 7 -105 13 4 5 2 9 -4 9 -5 0
-11 -5 -13 -10 -3 -11 -115 -17 -124 -7 -3 3 -5 35 -5 71 0 36 -4 66 -10 66
-5 0 -9 -37 -9 -82 l0 -83 87 0 c49 0 91 5 95 10 5 7 8 7 8 0 0 -6 42 -10 107
-9 l107 0 0 157 c1 137 3 157 17 157 20 0 49 31 49 53 0 24 -17 21 -23 -3z"/>
<path d="M1673 1513 c15 -2 37 -2 50 0 12 2 0 4 -28 4 -27 0 -38 -2 -22 -4z"/>
<path d="M1630 1488 c0 -5 26 -7 58 -7 61 1 55 6 -15 11 -24 2 -43 0 -43 -4z"/>
<path d="M1260 1482 c0 -4 19 -6 43 -4 70 5 76 10 15 11 -32 0 -58 -2 -58 -7z"/>
<path d="M1426 1461 c-4 -7 -5 -15 -2 -18 8 -8 -13 -45 -23 -39 -4 3 -5 -8 -3
-24 2 -17 8 -28 12 -25 5 3 11 -5 13 -17 2 -13 5 3 6 35 1 54 2 57 26 57 14 0
25 5 25 10 0 6 -9 10 -19 10 -11 0 -21 5 -23 12 -3 9 -6 9 -12 -1z"/>
<path d="M1543 1456 c-31 -15 -29 -29 3 -23 19 3 27 0 34 -17 4 -11 4 -29 -2
-38 -7 -15 -5 -18 13 -18 16 0 20 5 16 20 -3 11 -1 20 4 20 5 0 9 -11 9 -25 0
-21 5 -25 28 -25 36 0 72 37 72 73 0 24 -4 27 -35 27 -19 0 -35 -5 -35 -10 0
-6 -11 -16 -25 -22 -21 -10 -27 -8 -39 8 -8 10 -12 22 -10 26 8 12 -11 14 -33
4z m148 -70 c-20 -19 -21 -19 -41 -1 l-20 18 22 19 c20 17 22 17 40 1 18 -16
18 -17 -1 -37z"/>
<path d="M1287 1433 c-14 -13 -6 -49 13 -63 11 -8 20 -22 20 -32 0 -11 7 -18
18 -17 10 0 12 3 5 6 -24 9 -14 30 12 25 22 -4 25 -1 25 27 0 17 -4 31 -10 31
-5 0 -10 7 -10 15 0 10 -10 15 -33 15 -19 0 -37 -3 -40 -7z m68 -23 c14 -15
15 -23 6 -34 -15 -18 -46 -13 -45 8 1 8 -2 13 -7 10 -13 -8 -11 10 3 24 16 16
22 15 43 -8z"/>
<path d="M1331 1394 c0 -11 3 -14 6 -6 3 7 2 16 -1 19 -3 4 -6 -2 -5 -13z"/>
<path d="M1443 1370 c0 -30 2 -43 4 -27 2 15 2 39 0 55 -2 15 -4 2 -4 -28z"/>
<path d="M2478 1413 c-12 -3 -18 -14 -18 -33 0 -37 15 -47 18 -12 2 27 20 45
35 35 4 -3 1 -13 -7 -22 -22 -24 -20 -41 4 -41 11 0 20 5 20 10 0 6 -5 10 -10
10 -7 0 -7 7 0 20 18 33 3 45 -42 33z"/>
<path d="M2550 1378 c0 -23 3 -38 8 -34 4 4 8 12 8 17 1 5 2 12 3 17 1 4 10
-4 21 -18 11 -14 20 -20 20 -13 0 6 -5 15 -10 18 -8 5 -7 11 0 20 16 19 4 35
-26 35 -22 0 -24 -4 -24 -42z m40 22 c0 -5 -7 -10 -16 -10 -8 0 -12 5 -9 10 3
6 10 10 16 10 5 0 9 -4 9 -10z"/>
<path d="M1561 1394 c0 -11 3 -14 6 -6 3 7 2 16 -1 19 -3 4 -6 -2 -5 -13z"/>
<path d="M1285 1350 c10 -11 20 -20 23 -20 3 0 -3 9 -13 20 -10 11 -20 20 -23
20 -3 0 3 -9 13 -20z"/>
<path d="M1550 1351 c0 -12 5 -21 10 -21 6 0 10 6 10 14 0 8 -4 18 -10 21 -5
3 -10 -3 -10 -14z"/>
<path d="M247 1353 c-12 -12 -7 -22 8 -17 8 4 15 2 15 -4 0 -5 -7 -15 -15 -22
-21 -17 -19 -30 5 -30 11 0 20 5 20 11 0 5 -5 7 -12 3 -6 -4 -4 3 5 15 8 13
13 30 10 37 -5 15 -25 19 -36 7z"/>
<path d="M319 1358 c-7 -17 -6 -78 2 -78 5 0 9 5 9 11 0 7 8 18 18 25 16 13
16 13 0 14 -10 0 -18 4 -18 10 0 5 7 7 15 4 8 -4 15 -1 15 5 0 9 -38 17 -41 9z"/>
<path d="M1365 1330 c3 -5 8 -10 11 -10 2 0 4 5 4 10 0 6 -5 10 -11 10 -5 0
-7 -4 -4 -10z"/>
<path d="M2175 630 c3 -5 8 -10 11 -10 2 0 4 5 4 10 0 6 -5 10 -11 10 -5 0 -7
-4 -4 -10z"/>
<path d="M1388 543 c6 -2 18 -2 25 0 6 3 1 5 -13 5 -14 0 -19 -2 -12 -5z"/>
<path d="M2780 120 c0 -5 5 -10 10 -10 6 0 10 5 10 10 0 6 -4 10 -10 10 -5 0
-10 -4 -10 -10z"/>
<path d="M2850 40 c0 -5 5 -10 11 -10 5 0 7 5 4 10 -3 6 -8 10 -11 10 -2 0 -4
-4 -4 -10z"/>
</g>

<rect  style="stroke:#1a1a1a;stroke-width:1.4;stroke-miterlimit:4;stroke-dasharray:none;stroke-opacity:1"
       id="2d"
       fill="red"
       y="14"
       x="14"
       height="30"
       width="23" />
<text
       style="font-style:normal;font-weight:normal;font-size:14px;line-height:125%;font-family:Verdana;letter-spacing:0px;word-spacing:0px;fill-opacity:1;fill-rule:evenodd;stroke:none"
       xml:space="preserve"
       id="2dt"
       y="35"
       x="16"> 2D
</text>

<rect  style="stroke:#1a1a1a;stroke-width:1.4;stroke-miterlimit:4;stroke-dasharray:none;stroke-opacity:1"
       id="2f"
       fill="red"
       y="59"
       x="14"
       height="34"
       width="39" />
<text
       style="font-style:normal;font-weight:normal;font-size:14px;line-height:125%;font-family:Verdana;letter-spacing:0px;word-spacing:0px;fill-opacity:1;fill-rule:evenodd;stroke:none"
       xml:space="preserve"
       id="2ft"
       y="80"
       x="25"> 2F
</text>

<rect  style="stroke:#1a1a1a;stroke-width:1.4;stroke-miterlimit:4;stroke-dasharray:none;stroke-opacity:1"
       id="2c"
       fill="red"
       y="26"
       x="39"
       height="22"
       width="20" />
<text
       style="font-style:normal;font-weight:normal;font-size:13px;line-height:125%;font-family:Verdana;letter-spacing:0px;word-spacing:0px;fill-opacity:1;fill-rule:evenodd;stroke:none"
       xml:space="preserve"
       id="2ct"
       y="42"
       x="40"> 2C
</text>

<rect  style="stroke:#1a1a1a;stroke-width:1.4;stroke-miterlimit:4;stroke-dasharray:none;stroke-opacity:1"
       id="2b"
       fill="red"
       y="26"
       x="59"
       height="22"
       width="21" />
<text
       style="font-style:normal;font-weight:normal;font-size:13px;line-height:125%;font-family:Verdana;letter-spacing:0px;word-spacing:0px;fill-opacity:1;fill-rule:evenodd;stroke:none"
       xml:space="preserve"
       id="2bt"
       y="42"
       x="60"> 2B
</text>

<rect  style="stroke:#1a1a1a;stroke-width:1.4;stroke-miterlimit:4;stroke-dasharray:none;stroke-opacity:1"
       id="2a"
       fill="red"
       y="26"
       x="80"
       height="22"
       width="42" />
<text
       style="font-style:normal;font-weight:normal;font-size:13px;line-height:125%;font-family:Verdana;letter-spacing:0px;word-spacing:0px;fill-opacity:1;fill-rule:evenodd;stroke:none"
       xml:space="preserve"
       id="2at"
       y="42"
       x="92"> 2A
</text>

<rect  style="stroke:#1a1a1a;stroke-width:1.4;stroke-miterlimit:4;stroke-dasharray:none;stroke-opacity:1"
       id="2m"
       fill="red"
       y="26"
       x="177"
       height="22"
       width="40" />
<text
       style="font-style:normal;font-weight:normal;font-size:13px;line-height:125%;font-family:Verdana;letter-spacing:0px;word-spacing:0px;fill-opacity:1;fill-rule:evenodd;stroke:none"
       xml:space="preserve"
       id="2mt"
       y="42"
       x="187"> 2M
</text>

<rect  style="stroke:#1a1a1a;stroke-width:1.4;stroke-miterlimit:4;stroke-dasharray:none;stroke-opacity:1"
       id="2n"
       fill="red"
       y="26"
       x="217"
       height="22"
       width="20" />
<text
       style="font-style:normal;font-weight:normal;font-size:13px;line-height:125%;font-family:Verdana;letter-spacing:0px;word-spacing:0px;fill-opacity:1;fill-rule:evenodd;stroke:none"
       xml:space="preserve"
       id="2nt"
       y="42"
       x="218"> 2N
</text>

<rect  style="stroke:#1a1a1a;stroke-width:1.4;stroke-miterlimit:4;stroke-dasharray:none;stroke-opacity:1"
       id="2p"
       fill="red"
       y="26"
       x="237"
       height="22"
       width="24" />
<text
       style="font-style:normal;font-weight:normal;font-size:13px;line-height:125%;font-family:Verdana;letter-spacing:0px;word-spacing:0px;fill-opacity:1;fill-rule:evenodd;stroke:none"
       xml:space="preserve"
       id="2pt"
       y="42"
       x="241"> 2P
</text>

<rect  style="stroke:#1a1a1a;stroke-width:1.4;stroke-miterlimit:4;stroke-dasharray:none;stroke-opacity:1"
       id="2q"
       fill="red"
       y="14"
       x="262"
       height="30"
       width="24" />
<text
       style="font-style:normal;font-weight:normal;font-size:13px;line-height:125%;font-family:Verdana;letter-spacing:0px;word-spacing:0px;fill-opacity:1;fill-rule:evenodd;stroke:none"
       xml:space="preserve"
       id="2qt"
       y="35"
       x="265"> 2Q
</text>

<rect  style="stroke:#1a1a1a;stroke-width:1.4;stroke-miterlimit:4;stroke-dasharray:none;stroke-opacity:1"
       id="2r"
       fill="red"
       y="61"
       x="247"
       height="32"
       width="39" />
<text
       style="font-style:normal;font-weight:normal;font-size:14px;line-height:125%;font-family:Verdana;letter-spacing:0px;word-spacing:0px;fill-opacity:1;fill-rule:evenodd;stroke:none"
       xml:space="preserve"
       id="2rt"
       y="81"
       x="258"> 2R
</text>
</svg>
