<?xml version="1.0" standalone="no"?>
<!DOCTYPE svg PUBLIC "-//W3C//DTD SVG 20010904//EN"
 "http://www.w3.org/TR/2001/REC-SVG-20010904/DTD/svg10.dtd">
<svg version="1.0" xmlns="http://www.w3.org/2000/svg"
 width="300.000000pt" height="219.000000pt" viewBox="0 0 300.000000 219.000000"
 preserveAspectRatio="xMidYMid meet">
<metadata>
Created by potrace 1.10, written by Peter Selinger 2001-2011
</metadata>
<g transform="translate(0.000000,219.000000) scale(0.100000,-0.100000)"
fill="#000000" stroke="none">
<path d="M1411 2093 c1 -34 17 -79 18 -50 1 10 9 17 21 17 15 0 20 7 20 25 0
21 5 25 29 25 23 0 30 -5 33 -25 3 -13 0 -26 -6 -28 -6 -3 -7 -8 -2 -13 5 -5
11 -4 13 4 7 18 33 14 34 -5 1 -29 17 16 18 50 l1 27 -90 0 -90 0 1 -27z m49
-8 c0 -8 -7 -15 -15 -15 -8 0 -15 7 -15 15 0 8 7 15 15 15 8 0 15 -7 15 -15z
m110 0 c0 -8 -4 -15 -9 -15 -13 0 -22 16 -14 24 11 11 23 6 23 -9z"/>
<path d="M1780 2030 c0 -6 -102 -10 -285 -10 l-285 0 0 -54 0 -54 -126 2 c-69
1 -128 -2 -130 -6 -3 -4 -14 -2 -25 5 -16 10 -21 9 -29 -2 -7 -12 -11 -12 -24
-2 -12 10 -19 11 -30 2 -9 -8 -16 -8 -20 -2 -8 12 -84 12 -92 -1 -3 -5 -12 -4
-20 3 -11 9 -18 9 -26 1 -8 -8 -16 -7 -28 1 -14 8 -22 8 -33 -2 -9 -7 -18 -8
-21 -3 -8 13 -84 13 -92 0 -4 -6 -9 -5 -15 3 -7 11 -12 12 -29 1 -12 -7 -20
-8 -20 -2 0 5 -9 10 -20 10 -11 0 -20 -5 -20 -11 0 -8 -5 -8 -15 1 -8 7 -22
10 -30 6 -12 -4 -15 5 -15 53 l0 58 -134 1 -133 1 -1 -204 c-1 -121 3 -207 8
-210 9 -6 14 20 11 56 -2 14 7 17 50 15 34 -1 53 3 56 12 3 9 -11 12 -50 12
l-56 0 0 149 -1 149 115 1 116 1 -3 -185 c-2 -102 0 -185 5 -185 4 0 7 -7 7
-16 0 -8 -4 -12 -10 -9 -5 3 -10 2 -10 -4 0 -5 6 -12 13 -14 8 -4 8 -8 2 -14
-14 -11 -12 -66 3 -71 7 -2 12 5 12 17 0 19 6 21 65 21 l65 0 -1 -170 0 -170
-187 3 -187 2 0 153 -1 152 51 -2 c42 -3 50 0 50 14 0 10 6 23 13 30 18 18 15
93 -5 109 -15 12 -16 12 -9 -6 15 -37 12 -69 -7 -73 -11 -2 -17 3 -17 17 0 11
7 21 16 23 13 3 13 5 -1 23 -10 13 -14 15 -13 5 2 -10 -6 -15 -24 -16 -34 -1
-35 4 -5 16 21 9 21 9 -4 7 -28 -1 -34 -23 -12 -45 7 -8 10 -19 6 -25 -4 -7
-9 -4 -14 9 -6 16 -8 15 -8 -7 -1 -25 24 -47 37 -34 3 3 -1 5 -8 5 -10 0 -11
3 -3 11 8 8 16 6 31 -9 26 -26 19 -32 -34 -32 -43 0 -44 1 -40 30 2 20 -1 30
-10 30 -18 0 -19 -110 -1 -129 9 -11 9 -14 0 -18 -17 -6 -17 -70 0 -77 9 -5 9
-7 0 -12 -17 -7 -17 -71 0 -77 9 -4 9 -7 0 -18 -7 -7 -13 -28 -13 -46 l0 -33
103 0 c67 0 107 4 115 12 8 8 12 8 12 1 0 -6 35 -10 94 -11 l95 0 -1 137 c0
75 0 154 1 177 l1 41 227 -1 228 -1 -1 -92 -2 -93 126 0 c107 0 127 2 138 18
12 16 15 15 46 -15 25 -25 30 -35 20 -45 -9 -9 -16 -7 -32 7 -29 26 -38 10
-10 -20 13 -14 20 -31 17 -39 -4 -10 -1 -16 8 -16 9 0 15 9 15 23 0 38 19 47
95 47 l70 0 -1 -52 c-2 -77 7 -158 18 -158 13 0 6 93 -7 102 -6 5 -5 8 3 8 9
0 11 13 7 50 l-6 50 47 0 47 0 -6 -59 c-6 -70 2 -151 15 -151 6 0 8 44 7 107
l-3 106 74 -2 c41 -1 78 -5 82 -7 4 -3 7 -42 6 -87 0 -45 0 -90 1 -99 2 -28
21 -21 21 8 0 14 -4 23 -10 19 -5 -3 -10 -1 -10 4 0 6 4 11 10 11 5 0 10 32
12 72 2 43 8 73 15 75 6 2 13 -4 16 -14 3 -13 5 -11 6 7 3 51 10 54 140 53
l121 -1 0 92 0 92 228 -1 227 0 -3 -38 c-2 -22 1 -37 7 -37 6 0 11 -5 11 -11
0 -5 -4 -7 -10 -4 -6 4 -10 -10 -10 -35 0 -25 4 -39 10 -35 6 3 10 1 10 -4 0
-6 -4 -11 -10 -11 -5 0 -10 -16 -10 -36 0 -21 4 -33 10 -29 6 3 10 -1 10 -9 0
-9 -4 -16 -10 -16 -5 0 -10 -20 -10 -45 0 -45 0 -45 36 -45 21 0 33 4 29 10
-3 6 -1 10 4 10 6 0 11 -4 11 -9 0 -5 11 -8 25 -8 14 0 25 3 25 8 0 5 5 9 11
9 5 0 7 -4 4 -10 -4 -6 7 -10 24 -10 17 0 31 5 31 10 0 6 5 10 11 10 5 0 8 -4
4 -9 -3 -6 38 -9 101 -7 l106 2 2 416 1 417 -138 -1 -138 -1 2 -56 c3 -53 2
-55 -26 -63 -19 -5 -32 -3 -36 4 -6 9 -12 8 -23 -1 -13 -11 -19 -11 -32 0 -13
10 -17 10 -24 0 -4 -8 -13 -10 -20 -6 -7 5 -30 8 -50 8 -20 0 -43 -3 -50 -8
-7 -4 -16 -2 -20 5 -9 15 -21 15 -31 -1 -6 -10 -11 -10 -25 2 -13 11 -18 11
-21 2 -5 -15 -33 -18 -33 -4 0 11 -61 8 -79 -4 -8 -4 -17 -2 -22 6 -7 11 -12
12 -28 2 -15 -10 -21 -10 -24 0 -3 9 -10 9 -27 -1 -14 -9 -25 -10 -29 -4 -8
13 -255 6 -259 -7 -2 -7 30 -11 97 -11 68 0 101 -4 101 -11 0 -8 5 -8 15 1 13
11 15 -2 14 -106 0 -66 -3 -113 -6 -106 -6 14 -33 16 -33 2 0 -5 -8 -10 -17
-10 -15 0 -16 2 -3 10 13 8 12 10 -2 10 -10 0 -18 -4 -18 -8 0 -5 -7 -9 -15
-9 -8 0 -15 4 -15 9 0 4 -24 7 -52 6 l-53 -1 50 -7 50 -7 -52 -1 c-37 -2 -53
2 -53 11 0 9 -2 9 -8 0 -4 -6 -6 74 -5 178 1 104 0 189 -2 189 -3 0 -5 -4 -5
-10z m-390 -30 c0 -5 5 -10 11 -10 5 0 8 3 6 8 -3 4 12 7 33 7 21 0 36 -3 34
-6 -2 -4 5 -9 16 -12 13 -3 20 0 20 9 0 8 5 14 11 14 5 0 7 -4 4 -10 -3 -5 0
-8 7 -6 7 2 29 7 48 10 25 4 31 3 20 -4 -11 -7 -5 -10 23 -10 21 0 36 3 34 8
-3 4 20 6 51 4 l57 -4 0 -113 1 -113 -103 2 c-85 1 -103 4 -102 16 4 47 1 50
-56 50 -42 0 -55 -3 -55 -15 0 -8 -6 -15 -12 -16 -10 0 -10 -2 0 -6 36 -14 0
-23 -98 -23 l-110 0 0 109 0 109 75 -2 c41 -2 72 1 69 6 -3 4 0 8 5 8 6 0 11
-4 11 -10z m1511 -19 c1 -28 1 -208 0 -252 -1 -27 -1 -27 -106 -34 -58 -4
-105 -10 -105 -13 0 -4 26 -5 57 -3 53 3 56 2 43 -14 -22 -26 -20 -65 5 -127
6 -14 -1 -18 -42 -21 -26 -2 -3 -4 52 -3 l100 1 -1 -143 c-1 -78 -3 -145 -6
-147 -2 -2 -87 -5 -188 -5 l-185 -2 2 144 c1 78 2 152 3 163 0 18 7 20 62 20
l62 0 -3 -57 c-2 -47 0 -58 13 -58 12 0 16 9 15 33 -1 30 -1 31 -9 7 -8 -24
-8 -23 -9 8 -1 23 3 32 15 32 8 0 12 5 9 10 -4 6 13 10 44 10 28 0 51 4 51 9
0 11 -80 19 -86 9 -9 -14 -24 2 -17 17 3 9 -1 15 -11 15 -9 0 -16 -4 -16 -9 0
-6 -166 -8 -430 -5 -291 3 -430 1 -430 -6 0 -5 20 -10 45 -10 57 0 59 -18 3
-23 l-43 -4 46 -1 c39 -2 48 1 52 17 4 17 18 20 47 11 3 -1 23 -2 45 -3 l39
-2 1 -82 c0 -76 -1 -82 -19 -79 -24 3 -34 26 -12 26 9 0 16 5 16 10 0 6 -7 10
-15 10 -8 0 -15 5 -15 10 0 6 7 10 16 10 8 0 12 5 9 10 -4 6 -11 8 -16 5 -5
-4 -9 1 -9 10 0 9 5 13 10 10 6 -3 10 -1 10 4 0 6 -7 11 -16 11 -14 0 -16 -10
-12 -63 l4 -63 -56 7 c-30 5 -64 6 -75 3 -41 -10 -55 23 -57 134 -1 56 -5 102
-10 102 -4 0 -8 5 -8 11 0 5 5 7 10 4 5 -3 10 -1 10 5 0 8 126 10 443 8 l442
-3 0 181 0 182 113 -1 112 0 1 -26z m-2341 -89 c-5 -2 -7 -8 -4 -14 4 -7 9 -6
14 2 5 9 40 13 108 14 55 0 98 -2 96 -6 -2 -4 0 -9 6 -13 5 -3 10 0 10 7 0 10
23 12 100 10 l100 -3 0 -109 0 -109 -275 0 -276 0 2 100 c1 55 -2 103 -5 106
-3 4 -6 -42 -6 -100 l0 -107 -40 0 -40 0 0 113 0 112 110 0 c61 0 106 -1 100
-3z m603 -1 l48 -1 -2 -160 -2 -159 -429 -1 -428 0 0 45 0 45 420 -3 c231 -1
420 1 420 5 0 4 -42 9 -92 10 l-93 3 0 95 c-1 130 -3 125 58 123 29 -1 74 -2
100 -2z m1048 -13 c0 -10 2 -10 6 0 6 15 213 18 213 2 0 -5 5 -10 11 -10 5 0
7 5 4 10 -4 6 33 10 102 10 l109 0 -3 -107 c-1 -60 -2 -111 -3 -115 0 -14 -50
-9 -50 5 0 8 -3 9 -8 1 -9 -14 -142 -19 -142 -5 0 6 -7 11 -15 11 -8 0 -15 -4
-15 -10 0 -5 -8 -10 -17 -10 -15 0 -16 2 -3 10 13 8 12 10 -2 10 -10 0 -18 -4
-18 -10 0 -5 -4 -10 -10 -10 -6 0 -10 45 -11 113 -1 62 -4 101 -8 87 -4 -14
-7 -64 -7 -112 1 -82 0 -88 -19 -88 -17 0 -17 2 -5 10 8 5 10 10 5 10 -6 0
-16 -5 -23 -12 -9 -9 -12 -9 -12 0 0 7 -10 12 -22 11 -22 0 -22 -1 -3 -9 18
-8 17 -9 -7 -9 -16 -1 -28 4 -28 9 0 13 -147 13 -155 0 -5 -8 -12 -7 -23 2
-12 10 -14 10 -8 1 4 -7 2 -13 -4 -13 -7 0 -10 38 -8 115 l2 115 88 0 c63 0
88 -4 89 -12z m-659 -80 l3 -33 103 -3 c88 -2 102 -5 102 -20 0 -9 2 -88 5
-174 2 -94 0 -160 -5 -163 -6 -4 -10 -1 -10 6 0 7 -11 2 -25 -11 -14 -13 -21
-26 -16 -30 6 -3 6 -11 2 -19 -7 -10 -32 -12 -110 -9 -55 2 -102 0 -103 -4 -2
-4 -13 -5 -25 -2 -20 6 -23 13 -25 68 l-2 61 -3 -62 -4 -63 -70 0 c-65 0 -73
3 -103 30 -31 30 -32 31 -31 124 0 52 -3 92 -7 89 -5 -2 -8 10 -8 26 0 17 3
31 8 31 4 0 5 27 4 60 l-4 60 100 0 c121 0 132 3 132 41 0 28 2 29 44 29 43 0
45 -1 48 -32z m1358 -126 c0 -4 -5 -13 -11 -19 -7 -7 -6 -15 5 -26 11 -10 13
-18 5 -22 -5 -4 -9 -19 -7 -33 3 -25 0 -27 -40 -30 -42 -3 -72 10 -72 31 0 6
3 8 6 4 3 -3 17 -2 30 4 19 7 26 5 31 -6 4 -12 9 -13 19 -4 19 15 18 30 -1 23
-11 -5 -15 1 -15 22 1 28 1 28 15 10 8 -11 15 -16 15 -10 0 5 -8 18 -16 29
-11 14 -18 16 -21 8 -8 -21 -39 -15 -40 7 -2 18 4 20 48 20 27 0 49 -4 49 -8z
m-737 -9 c-18 -2 -48 -2 -65 0 -18 2 -4 4 32 4 36 0 50 -2 33 -4z m632 -22
c-3 -14 1 -18 11 -14 9 3 14 -2 14 -16 0 -14 -6 -21 -20 -21 -15 0 -20 7 -20
28 0 25 7 42 16 42 2 0 1 -9 -1 -19z m-2591 -73 c-3 -4 -11 -5 -19 -1 -21 7
-19 12 4 10 11 0 18 -5 15 -9z m876 -20 c0 6 5 12 10 12 6 0 10 -9 10 -20 0
-16 7 -20 31 -20 17 0 28 -4 24 -10 -3 -5 1 -10 10 -10 9 0 14 4 11 9 -4 5 0
12 6 14 7 3 -6 6 -30 6 -55 1 -46 21 9 21 l39 0 0 -72 c0 -40 -4 -79 -9 -86
-5 -9 -38 -14 -103 -15 -78 -2 -92 0 -81 11 7 8 13 35 13 63 0 45 -2 49 -22
48 -17 -1 -19 -2 -5 -6 22 -6 22 -23 0 -23 -15 0 -14 -2 3 -14 18 -14 18 -15
1 -21 -17 -7 -17 -8 0 -20 15 -11 15 -13 -5 -24 -12 -6 -22 -10 -22 -9 -1 2
-2 39 -2 83 l-2 80 37 3 c46 4 50 -15 5 -21 l-33 -4 36 -1 c30 -2 38 2 43 21
5 18 8 20 16 7 6 -10 10 -11 10 -2z m650 -163 c-7 -9 -15 -13 -17 -11 -7 7 7
26 19 26 6 0 6 -6 -2 -15z m53 3 c6 -17 -3 -38 -15 -38 -6 0 -17 -8 -24 -17
-10 -14 -15 -15 -25 -6 -10 10 -9 17 6 33 14 16 21 18 27 8 6 -8 7 -5 3 10 -5
16 -2 22 8 22 9 0 17 -6 20 -12z m-236 -200 c-3 -7 -5 -2 -5 12 0 14 2 19 5
13 2 -7 2 -19 0 -25z"/>
<path d="M1948 1521 c12 -7 62 -4 62 5 0 2 -17 4 -37 4 -24 0 -33 -3 -25 -9z"/>
<path d="M1838 1476 c3 -27 0 -35 -15 -39 -17 -5 -17 -5 1 -6 13 -1 17 -6 13
-21 -3 -11 -1 -18 4 -14 11 6 12 114 1 114 -4 0 -6 -15 -4 -34z"/>
<path d="M1811 1474 c0 -11 3 -14 6 -6 3 7 2 16 -1 19 -3 4 -6 -2 -5 -13z"/>
<path d="M2652 1283 l2 -58 5 55 5 55 6 -55 7 -55 1 58 c2 45 -1 57 -13 57
-12 0 -15 -12 -13 -57z"/>
<path d="M2483 1673 c15 -2 39 -2 55 0 15 2 2 4 -28 4 -30 0 -43 -2 -27 -4z"/>
<path d="M1526 1773 c-12 -12 -6 -33 9 -33 20 0 84 -70 85 -92 0 -10 5 -18 10
-18 6 0 10 10 10 23 0 27 -61 97 -84 97 -10 0 -15 4 -11 9 6 11 -9 23 -19 14z
m75 -65 c11 -21 11 -22 -4 -9 -10 7 -17 17 -17 22 0 15 9 10 21 -13z"/>
<path d="M1448 1753 c-16 -8 -28 -21 -28 -29 0 -8 -4 -13 -9 -9 -11 6 -51 -47
-51 -69 0 -9 5 -16 10 -16 6 0 10 8 10 18 0 10 3 22 8 26 4 4 7 13 7 19 1 7 6
11 12 10 6 -1 19 7 28 17 10 11 24 20 32 20 7 0 13 7 13 15 0 8 -1 15 -2 14
-2 -1 -15 -8 -30 -16z"/>
<path d="M1250 1670 c0 -5 20 -10 44 -10 25 0 48 5 51 10 4 6 -13 10 -44 10
-28 0 -51 -4 -51 -10z"/>
<path d="M1665 1670 c3 -5 22 -10 41 -10 19 0 34 5 34 10 0 6 -18 10 -41 10
-24 0 -38 -4 -34 -10z"/>
<path d="M1364 1560 l6 -30 -60 0 c-33 0 -60 -4 -60 -8 0 -4 32 -5 70 -1 68 6
98 17 73 26 -7 3 -13 13 -13 24 0 10 -5 19 -11 19 -7 0 -9 -11 -5 -30z"/>
<path d="M1617 1563 c-3 -16 -3 -30 -1 -32 8 -8 28 18 29 39 2 30 -22 24 -28
-7z"/>
<path d="M1270 1549 c0 -5 5 -7 10 -4 6 3 10 8 10 11 0 2 -4 4 -10 4 -5 0 -10
-5 -10 -11z"/>
<path d="M1300 1552 c0 -4 9 -8 20 -8 11 0 20 4 20 8 0 4 -9 8 -20 8 -11 0
-20 -4 -20 -8z"/>
<path d="M1680 1552 c0 -11 48 -13 54 -3 3 4 -8 8 -24 9 -17 0 -30 -3 -30 -6z"/>
<path d="M1668 1523 c18 -2 45 -2 60 0 15 2 0 4 -33 4 -33 0 -45 -2 -27 -4z"/>
<path d="M1424 1493 c3 -10 2 -24 -3 -31 -10 -17 -67 -12 -63 6 1 8 -11 12
-38 12 -22 0 -40 -5 -40 -11 0 -5 5 -7 10 -4 6 3 10 1 10 -4 0 -6 -4 -11 -10
-11 -19 0 -9 -35 15 -53 14 -10 25 -14 25 -8 0 5 9 7 20 4 28 -7 25 -23 -5
-23 -14 0 -25 -3 -25 -7 0 -5 15 -8 32 -7 32 1 32 2 29 42 -4 56 17 55 22 0
l4 -43 3 45 3 45 7 -45 7 -45 1 58 c2 54 3 57 27 57 14 0 25 5 25 10 0 6 -9
10 -20 10 -11 0 -20 5 -20 10 0 6 -5 10 -11 10 -6 0 -8 -8 -5 -17z m-61 -56
c3 3 5 -4 4 -14 -1 -22 -29 -25 -62 -6 -19 11 -19 12 0 33 l20 22 16 -21 c9
-11 19 -18 22 -14z"/>
<path d="M1543 1493 c-13 -2 -23 -9 -23 -14 0 -15 53 -7 58 9 2 6 0 11 -5 11
-4 -1 -18 -4 -30 -6z"/>
<path d="M1658 1470 c-10 -11 -29 -20 -43 -20 -14 0 -25 -3 -26 -7 0 -5 -2
-16 -4 -25 -2 -9 3 -19 11 -22 15 -6 28 9 19 23 -3 5 -1 12 5 16 6 4 10 -5 10
-19 0 -23 4 -26 33 -26 42 0 70 28 65 67 -4 36 -44 44 -70 13z m60 -15 c0 -29
-24 -51 -58 -53 -17 -1 -20 2 -11 7 10 6 10 10 1 16 -14 9 17 34 43 35 9 0 17
5 17 10 0 6 2 10 4 10 2 0 4 -11 4 -25z"/>
<path d="M1250 1460 c0 -5 5 -10 10 -10 6 0 10 5 10 10 0 6 -4 10 -10 10 -5 0
-10 -4 -10 -10z"/>
<path d="M1563 1405 c0 -33 2 -45 4 -27 2 18 2 45 0 60 -2 15 -4 0 -4 -33z"/>
<path d="M1741 1444 c0 -11 3 -14 6 -6 3 7 2 16 -1 19 -3 4 -6 -2 -5 -13z"/>
<path d="M1250 1429 c0 -5 5 -7 10 -4 6 3 10 8 10 11 0 2 -4 4 -10 4 -5 0 -10
-5 -10 -11z"/>
<path d="M1276 1387 c11 -14 22 -23 27 -20 10 6 0 21 -25 34 -20 11 -20 11 -2
-14z"/>
<path d="M1580 1381 c0 -6 4 -13 10 -16 6 -3 7 1 4 9 -7 18 -14 21 -14 7z"/>
<path d="M1630 1368 c0 -4 14 -8 30 -8 17 0 30 3 30 8 0 4 -13 7 -30 7 -16 1
-30 -3 -30 -7z"/>
<path d="M2815 1560 c3 -5 8 -10 11 -10 2 0 4 5 4 10 0 6 -5 10 -11 10 -5 0
-7 -4 -4 -10z"/>
<path d="M1160 1445 c0 -34 1 -35 23 -23 20 11 20 13 4 16 -11 2 -16 9 -13 18
3 7 1 16 -4 19 -6 4 -10 -9 -10 -30z"/>
<path d="M1168 1393 c7 -3 16 -2 19 1 4 3 -2 6 -13 5 -11 0 -14 -3 -6 -6z"/>
<path d="M1764 1205 c0 -49 1 -71 3 -48 2 23 2 64 0 90 -2 26 -3 8 -3 -42z"/>
<path d="M1255 1199 c-1 -26 3 -35 12 -32 17 7 17 70 1 70 -8 0 -13 -15 -13
-38z"/>
<path d="M1264 1154 c-13 -6 -7 -44 7 -44 5 0 9 11 9 25 0 14 -1 25 -2 24 -2
0 -8 -3 -14 -5z"/>
<path d="M1178 1083 c2 -13 9 -23 14 -23 7 0 6 -5 -1 -14 -7 -9 -11 -73 -10
-195 l2 -182 35 3 36 3 0 -53 c1 -35 5 -52 14 -52 7 0 12 14 12 36 0 21 -4 33
-10 29 -15 -9 -12 4 4 21 10 10 38 14 93 14 l78 0 1 -65 1 -65 -79 0 c-44 0
-87 4 -96 9 -15 8 -17 2 -18 -59 0 -38 3 -67 8 -64 4 3 8 0 8 -5 0 -6 -5 -11
-11 -11 -6 0 -8 -9 -4 -20 5 -16 2 -20 -18 -20 -14 0 -28 -6 -31 -12 -5 -10
-7 -10 -12 0 -8 16 -114 17 -114 0 0 -9 -3 -9 -12 0 -7 7 -20 12 -30 12 -13 0
-18 8 -19 28 0 15 -3 21 -6 13 -4 -11 -7 -11 -13 0 -5 7 -8 -1 -7 -22 2 -29
-1 -34 -20 -33 -13 1 -23 -2 -23 -5 0 -4 69 -6 153 -5 l152 2 0 -44 0 -44
-157 0 c-151 0 -158 1 -158 20 0 11 -4 20 -10 20 -5 0 -10 -13 -10 -29 l0 -29
83 0 c45 0 121 -1 169 -1 l87 -1 -1 -75 -1 -75 -43 0 -44 0 -1 73 c-1 59 -2
66 -10 42 -5 -16 -7 -49 -4 -72 l4 -43 -182 0 -182 0 -2 93 c-1 50 0 107 3
125 5 32 5 32 64 32 47 0 60 -3 60 -15 0 -8 5 -15 10 -15 6 0 9 32 8 82 l-3
83 33 0 c23 0 32 -5 32 -17 0 -9 -6 -19 -12 -21 -7 -3 -3 -6 10 -6 18 -1 22 4
22 32 l0 32 -125 0 -125 0 0 -38 c0 -23 4 -36 10 -32 6 3 10 1 10 -4 0 -6 -4
-11 -8 -11 -13 0 -13 -62 0 -77 7 -9 7 -13 -1 -13 -16 0 -15 -137 2 -143 9 -4
9 -7 0 -14 -6 -5 -12 -27 -11 -51 l0 -42 235 1 c129 1 237 -2 241 -6 4 -3 7
-14 7 -23 0 -9 6 -16 14 -14 15 3 260 3 394 -1 73 -2 77 -1 77 19 0 26 35 34
110 24 27 -4 50 -4 50 -1 0 3 54 6 120 6 66 0 120 -2 120 -5 0 -3 18 -5 40 -5
l40 0 0 48 c0 31 -4 47 -12 47 -10 0 -10 2 -1 8 9 6 12 48 11 154 0 80 2 149
5 154 3 5 -25 7 -65 4 -38 -3 -99 -3 -135 0 l-65 6 5 -43 c2 -23 1 -41 -3 -38
-4 2 -5 -6 -3 -19 l5 -23 -111 1 c-78 0 -111 4 -111 13 0 6 -3 19 -7 29 -3 10
-2 15 3 12 5 -4 9 47 9 123 l0 129 38 0 c39 0 44 8 27 41 -7 11 -7 19 -1 19 5
0 9 74 9 185 -1 162 -3 185 -17 185 -9 0 -154 2 -322 3 l-305 2 4 -22z m491 5
l131 0 0 -94 c0 -51 -4 -95 -10 -99 -5 -3 -18 0 -29 7 -15 9 -23 10 -32 1 -20
-20 0 -34 37 -27 l35 6 -3 -96 -2 -96 -128 0 -128 0 0 47 c0 64 -11 47 -15
-22 -2 -43 0 -55 10 -51 15 6 27 -53 18 -95 -5 -27 -9 -29 -48 -29 -38 0 -43
2 -38 20 3 11 1 20 -4 20 -5 0 -9 9 -9 20 0 11 4 20 9 20 4 0 7 10 5 23 -2 13
2 21 10 19 6 -1 12 5 12 13 0 13 -23 15 -145 15 l-145 0 0 96 0 96 29 -7 c32
-7 51 9 32 28 -9 9 -16 8 -31 -1 -27 -17 -31 -5 -29 97 l1 91 145 -1 c79 -1
147 2 150 5 4 3 14 4 24 1 10 -3 76 -6 148 -7z m54 -468 c0 -28 3 -53 8 -56
26 -16 0 -24 -76 -24 l-85 0 0 65 0 65 78 0 77 0 -2 -50z m14 8 c-3 -8 -6 -5
-6 6 -1 11 2 17 5 13 3 -3 4 -12 1 -19z m-112 -107 l100 -1 -1 -100 c-1 -55 2
-100 7 -100 5 0 9 -5 9 -11 0 -5 -4 -7 -10 -4 -5 3 -10 1 -10 -4 0 -6 6 -11
13 -12 10 0 10 -2 0 -6 -8 -3 -13 -25 -13 -59 l0 -54 -80 0 c-71 0 -102 10
-67 23 6 2 9 7 6 11 -3 4 -18 2 -33 -4 -24 -9 -26 -12 -12 -25 11 -11 37 -15
100 -15 l86 0 0 -57 0 -58 -112 2 c-62 1 -162 2 -223 3 l-110 0 0 55 0 55 91
0 c71 0 94 4 105 16 10 13 10 17 -2 25 -22 14 -31 11 -25 -9 6 -17 0 -19 -80
-17 l-86 1 -2 173 c0 95 0 173 1 174 1 1 57 1 125 0 67 -1 168 -2 223 -2z
m-705 -109 l0 -57 -62 1 -63 1 -1 54 c0 30 1 56 2 59 1 3 29 3 63 2 l61 -4 0
-56z m1130 27 c0 -10 -4 -21 -10 -24 -6 -3 -10 4 -10 16 0 22 -1 22 -13 4 -16
-20 -37 -13 -37 14 0 14 7 16 35 13 26 -3 35 -9 35 -23z m150 -73 c0 -53 -4
-98 -10 -101 -5 -3 -10 -1 -10 4 0 12 -33 15 -43 5 -13 -13 7 -34 33 -34 l29
0 0 -81 c0 -69 -2 -80 -15 -75 -9 3 -112 6 -230 6 l-214 0 0 75 0 75 82 0 c45
0 79 2 76 5 -3 3 -39 6 -80 6 l-75 1 1 44 1 44 151 0 151 0 -1 -45 -1 -45 -67
0 c-38 0 -68 -3 -68 -7 0 -7 67 -8 141 -4 17 1 21 51 4 63 -7 5 -6 8 1 8 6 0
10 28 10 75 l-1 75 68 0 67 0 0 -94z m-172 35 c3 -8 8 -6 18 6 13 17 13 17 14
0 0 -35 -19 -56 -50 -55 -27 1 -30 4 -30 33 0 26 4 31 22 30 12 -1 24 -7 26
-14z m-761 -113 c-3 -7 -5 -2 -5 12 0 14 2 19 5 13 2 -7 2 -19 0 -25z"/>
<path d="M1531 1040 c0 -32 2 -40 9 -29 5 9 6 28 0 45 -8 27 -8 26 -9 -16z"/>
<path d="M1337 1063 c-4 -3 -7 -17 -7 -30 0 -14 -6 -23 -15 -23 -11 0 -15 -12
-16 -42 0 -24 -2 -55 -4 -70 -2 -18 2 -31 13 -38 11 -6 12 -10 4 -10 -9 0 -12
-12 -10 -40 4 -52 22 -57 26 -7 2 20 8 37 14 37 6 0 8 -11 6 -25 -5 -25 -5
-25 68 -25 43 0 74 4 74 10 0 6 -29 10 -66 10 l-66 0 4 33 c3 30 1 32 -24 29
-24 -3 -28 0 -28 23 0 24 3 26 25 21 23 -6 25 -3 25 24 l0 30 71 0 c62 0 70 2
59 15 -8 9 -10 28 -6 50 4 22 3 35 -4 35 -5 0 -10 -18 -10 -40 l0 -40 -59 0
-60 0 -3 -32 -4 -33 -8 28 c-6 21 -4 33 10 48 16 17 16 22 4 29 -10 7 -11 10
-2 10 6 0 12 7 12 15 0 16 -12 20 -23 8z m-20 -120 c-3 -10 -5 -4 -5 12 0 17
2 24 5 18 2 -7 2 -21 0 -30z m0 -140 c-3 -10 -5 -4 -5 12 0 17 2 24 5 18 2 -7
2 -21 0 -30z"/>
<path d="M1650 1030 l0 -40 -65 0 c-37 0 -65 -4 -65 -10 0 -6 27 -10 60 -10
l60 0 0 -31 c0 -26 3 -29 20 -24 25 8 37 -18 22 -48 -7 -12 -13 -42 -15 -67
-3 -41 -4 -41 -5 12 -2 62 -22 93 -22 34 l0 -36 -60 0 c-33 0 -60 -4 -60 -10
0 -6 29 -10 66 -10 l66 0 -3 -32 c-2 -18 0 -34 4 -35 19 -7 27 -1 27 23 0 14
4 23 10 19 6 -4 10 5 10 20 0 15 -4 24 -10 20 -6 -4 -10 7 -9 27 1 31 1 32 9
8 5 -17 8 8 9 71 1 78 -2 98 -14 103 -12 4 -15 -4 -16 -42 -1 -37 -3 -42 -8
-22 -4 14 -4 37 0 52 4 14 4 30 1 34 -4 4 -1 4 6 0 7 -4 12 -1 12 7 0 8 -7 17
-15 21 -12 4 -15 -3 -15 -34z m37 -87 c-3 -10 -5 -4 -5 12 0 17 2 24 5 18 2
-7 2 -21 0 -30z"/>
<path d="M1332 751 c-10 -27 -2 -41 22 -41 2 0 3 13 4 30 1 40 -14 47 -26 11z"/>
<path d="M1470 740 c0 -25 4 -39 10 -35 6 3 10 19 10 35 0 16 -4 32 -10 35 -6
4 -10 -10 -10 -35z"/>
<path d="M1310 494 c-11 -12 -11 -17 0 -27 10 -10 12 -9 7 5 -4 11 0 18 11 20
11 2 13 6 6 11 -7 4 -17 0 -24 -9z"/>
<path d="M1388 503 c7 -3 16 -2 19 1 4 3 -2 6 -13 5 -11 0 -14 -3 -6 -6z"/>
<path d="M1552 471 c-1 -29 -8 -48 -19 -57 -17 -12 -16 -13 5 -14 12 0 22 -5
22 -11 0 -5 5 -7 10 -4 6 3 10 17 10 31 0 13 5 24 10 24 15 0 12 29 -5 46 -13
14 -15 10 -17 -33 l-1 -48 -7 55 c-7 55 -7 55 -8 11z"/>
<path d="M1680 499 c0 -5 -5 -7 -12 -3 -7 4 -8 3 -4 -4 5 -8 -3 -12 -23 -12
-39 0 -42 -26 -7 -59 20 -19 23 -28 15 -48 -13 -34 -13 -33 29 -32 l37 2 -35
7 -35 7 30 3 c17 1 23 4 13 7 -18 5 -14 33 6 33 6 0 11 16 12 35 0 20 -2 31
-6 25 -5 -7 -11 -6 -19 4 -14 17 2 32 22 20 8 -5 8 -2 -2 9 -16 20 -21 21 -21
6z m-6 -48 c19 -21 14 -41 -10 -41 -8 0 -13 4 -10 9 3 5 -1 11 -9 15 -19 7
-20 36 -2 36 8 0 22 -9 31 -19z"/>
<path d="M1455 491 c-3 -5 -1 -12 5 -16 5 -3 10 1 10 9 0 18 -6 21 -15 7z"/>
<path d="M1618 493 c7 -3 16 -2 19 1 4 3 -2 6 -13 5 -11 0 -14 -3 -6 -6z"/>
<path d="M1335 468 c-19 -15 -25 -29 -25 -58 0 -21 -6 -41 -12 -43 -7 -3 6 -6
29 -6 35 -1 40 2 36 17 -2 10 5 26 16 36 48 44 7 94 -44 54z m55 -11 c0 -19
-37 -50 -49 -42 -17 10 -13 25 7 26 10 0 12 3 4 6 -17 7 -5 23 19 23 10 0 19
-6 19 -13z m-46 -72 c-4 -8 -9 -15 -13 -15 -4 0 -8 7 -8 15 0 8 6 15 13 15 8
0 11 -6 8 -15z"/>
<path d="M1418 478 c7 -7 12 -17 12 -22 0 -6 -5 -4 -10 4 -5 8 -10 11 -10 5 1
-5 7 -19 15 -29 14 -19 15 -18 15 17 0 28 -4 37 -17 37 -13 0 -14 -3 -5 -12z"/>
<path d="M1453 445 c0 -8 4 -12 9 -9 4 3 8 9 8 15 0 5 -4 9 -8 9 -5 0 -9 -7
-9 -15z"/>
<path d="M1450 410 c-8 -5 -11 -12 -8 -16 10 -9 38 3 38 16 0 12 -10 13 -30 0z"/>
<path d="M1388 343 c4 -22 22 -33 22 -14 0 5 3 16 6 25 4 10 0 14 -13 13 -15
-1 -18 -7 -15 -24z"/>
<path d="M1600 353 c0 -5 4 -15 10 -23 11 -18 25 -7 17 15 -6 15 -27 21 -27 8z"/>
<path d="M1323 343 c9 -2 23 -2 30 0 6 3 -1 5 -18 5 -16 0 -22 -2 -12 -5z"/>
<path d="M1390 261 c0 -19 17 -38 25 -29 7 7 -7 48 -16 48 -5 0 -9 -9 -9 -19z"/>
<path d="M1605 249 c-5 -21 -10 -27 -15 -19 -5 8 -10 8 -14 2 -3 -5 0 -12 8
-15 17 -7 46 23 46 46 0 29 -18 19 -25 -14z"/>
<path d="M1304 252 c7 -12 66 -14 66 -2 0 5 -16 10 -36 10 -19 0 -33 -4 -30
-8z"/>
<path d="M1663 243 c9 -2 25 -2 35 0 9 3 1 5 -18 5 -19 0 -27 -2 -17 -5z"/>
<path d="M1425 219 c-4 -6 -5 -12 -2 -15 2 -3 7 2 10 11 7 17 1 20 -8 4z"/>
<path d="M1480 90 c0 -5 5 -10 10 -10 6 0 10 5 10 10 0 6 -4 10 -10 10 -5 0
-10 -4 -10 -10z"/>
<path d="M2080 340 c0 -5 22 -10 49 -10 28 0 53 5 56 10 4 6 -15 10 -49 10
-31 0 -56 -4 -56 -10z"/>
<path d="M1763 165 c0 -38 2 -53 4 -32 2 20 2 52 0 70 -2 17 -4 1 -4 -38z"/>
<path d="M1821 170 c4 -75 19 -85 19 -12 0 37 -4 62 -10 62 -7 0 -10 -20 -9
-50z"/>
<path d="M956 444 c-4 -9 -4 -19 -1 -22 2 -3 7 3 11 12 4 9 4 19 1 22 -2 3 -7
-3 -11 -12z"/>
<path d="M1233 165 c0 -38 2 -53 4 -32 2 20 2 52 0 70 -2 17 -4 1 -4 -38z"/>
</g>
<rect  style="stroke:#1a1a1a;stroke-width:1.4;stroke-miterlimit:4;stroke-dasharray:none;stroke-opacity:1"
       id="4a"
       fill="red"
       y="110"
       x="120"
       height="40"
       width="14" />
<text
       style="font-style:normal;font-weight:normal;font-size:10px;line-height:125%;font-family:Verdana;letter-spacing:0px;word-spacing:0px;fill-opacity:1;fill-rule:evenodd;stroke:none"
       xml:space="preserve"
       id="4at"
       y="133"
       x="120"> 4A
</text>
<rect  style="stroke:#1a1a1a;stroke-width:1.4;stroke-miterlimit:4;stroke-dasharray:none;stroke-opacity:1"
       id="4b"
       fill="red"
       y="110"
       x="167"
       height="40"
       width="14" />
<text
       style="font-style:normal;font-weight:normal;font-size:10px;line-height:125%;font-family:Verdana;letter-spacing:0px;word-spacing:0px;fill-opacity:1;fill-rule:evenodd;stroke:none"
       xml:space="preserve"
       id="4bt"
       y="133"
       x="167"> 4B
</text>
</svg>
